<svg xmlns="http://www.w3.org/2000/svg" style="display: none;"><symbol id="wallet" viewBox="0 0 504.123 504.123"><title>wallet</title><path style="fill:#A86A3F;" d="M39.385,83h393.846c21.662,0,39.385,17.723,39.385,39.385v47.262 c0,21.662-17.723,39.385-39.385,39.385H39.385C17.723,209.03,0,191.307,0,169.646v-47.262C0,100.723,17.723,83,39.385,83z"/><path style="fill:#3DB39E;" d="M125.637,125.141l246.548-65.378c8.271-2.363,16.935,2.757,19.298,11.028l40.96,151.237 c2.363,8.271-2.757,16.935-11.028,19.298L100.431,326.79c-8.271,2.363-16.935-2.757-19.298-11.028L51.2,204.698L125.637,125.141z"/><path style="fill:#78CABB;" d="M389.514,217.301l-53.169,14.178c-4.332,1.182-8.665-1.182-9.452-5.514 c-1.182-4.332,1.182-8.665,5.514-9.452l45.686-12.209l-24.418-91.372l-45.686,12.209c-4.332,1.182-8.665-1.182-9.452-5.514 c-1.182-4.332,1.182-8.665,5.514-9.452l53.169-14.178c4.332-1.182,8.665,1.182,9.452,5.514l28.357,106.338 C396.209,212.181,393.846,216.513,389.514,217.301z M168.96,276.772l-53.169,14.178c-4.332,1.182-8.665-1.182-9.452-5.514 L77.982,179.098c-1.182-4.332,1.182-8.665,5.514-9.452l53.169-14.178c4.332-1.182,8.665,1.182,9.452,5.514 c1.182,4.332-1.182,8.665-5.514,9.452l-45.686,12.209l24.418,91.372l45.686-12.209c4.332-1.182,8.665,1.182,9.452,5.514 C175.655,271.258,173.292,275.59,168.96,276.772z"/><path style="fill:#5ABEAC;" d="M3.151,180.28C73.255,140.107,262.302,29.436,262.302,29.436c7.483-4.332,17.329-1.969,21.662,5.514 l78.769,135.483c4.332,7.483,1.575,16.935-5.908,21.268L68.529,357.116c-7.483,4.332-17.329,1.969-21.662-5.514 c0,0-22.055-44.898-44.111-82.708C2.757,180.28,3.151,209.424,3.151,180.28z"/><path style="fill:#8CD2C5;" d="M322.56,166.101L267.422,70.79c-2.363-3.938-7.089-5.12-10.634-2.757l-47.655,27.569 c-3.938,2.363-5.12,7.089-2.757,10.634c2.363,3.938,7.089,5.12,10.634,2.757l40.96-23.631l47.262,81.92l-40.96,23.631 c-3.938,2.363-5.12,7.089-2.757,10.634c2.363,3.938,7.089,5.12,10.634,2.757l47.655-27.569 C323.348,174.766,324.923,170.04,322.56,166.101z M113.822,277.56l-40.96,23.631L25.6,219.27l40.96-23.631 c3.938-2.363,5.12-7.089,2.757-10.634c-2.363-3.938-7.089-5.12-10.634-2.757l-47.655,27.569c-3.938,2.363-5.12,7.089-2.757,10.634 l55.138,95.311c2.363,3.938,7.089,5.12,10.634,2.757l47.655-27.569c3.938-2.363,5.12-7.089,2.757-10.634 C122.486,276.772,117.76,275.196,113.822,277.56z M133.908,138.532c-30.326,17.329-40.566,55.926-23.237,86.252 c17.723,30.326,55.926,40.566,86.252,23.237s40.566-55.926,23.237-86.252C202.437,131.836,164.234,121.203,133.908,138.532z M322.56,166.101L267.422,70.79c-2.363-3.938-7.089-5.12-10.634-2.757l-47.655,27.569c-3.938,2.363-5.12,7.089-2.757,10.634 c2.363,3.938,7.089,5.12,10.634,2.757l40.96-23.631l47.262,81.92l-40.96,23.631c-3.938,2.363-5.12,7.089-2.757,10.634 c2.363,3.938,7.089,5.12,10.634,2.757l47.655-27.569C323.348,174.766,324.923,170.04,322.56,166.101z M113.822,277.56l-40.96,23.631 L25.6,219.27l40.96-23.631c3.938-2.363,5.12-7.089,2.757-10.634c-2.363-3.938-7.089-5.12-10.634-2.757l-47.655,27.569 c-3.938,2.363-5.12,7.089-2.757,10.634l55.138,95.311c2.363,3.938,7.089,5.12,10.634,2.757l47.655-27.569 c3.938-2.363,5.12-7.089,2.757-10.634C122.486,276.772,117.76,275.196,113.822,277.56z M133.908,138.532 c-30.326,17.329-40.566,55.926-23.237,86.252c17.723,30.326,55.926,40.566,86.252,23.237s40.566-55.926,23.237-86.252 C202.437,131.836,164.234,121.203,133.908,138.532z"/><path style="fill:#C47E4D;" d="M448.985,476.846h-409.6C17.723,476.846,0,459.123,0,437.461V153.892h448.985 c21.662,0,39.385,17.723,39.385,39.385v244.185C488.369,459.123,470.646,476.846,448.985,476.846z M31.508,153.892H0v-31.508 C0,139.713,14.178,153.892,31.508,153.892z"/><path style="fill:#A86A3F;" d="M488.369,378.384h-63.015c-30.326,0-55.138-24.812-55.138-55.138s24.812-55.138,55.138-55.138h63.015 c8.665,0,15.754,7.089,15.754,15.754v78.769C504.123,371.295,497.034,378.384,488.369,378.384z"/><path style="fill:#EFC75E;" d="M425.354,291.738c17.329,0,31.508,14.178,31.508,31.508s-14.178,31.508-31.508,31.508 c-17.329,0-31.508-14.178-31.508-31.508S408.025,291.738,425.354,291.738z"/><path style="fill:#D7B354;" d="M433.231,346.876c-17.329,0-31.508-14.178-31.508-31.508c0-6.695,1.969-12.997,5.514-18.117 c-8.271,5.514-13.391,14.966-13.391,25.994c0,17.329,14.178,31.508,31.508,31.508c10.634,0,20.086-5.514,25.994-13.391 C446.228,344.907,439.926,346.876,433.231,346.876z"/><path style="fill:#B27245;" d="M448.985,461.092h-409.6C17.723,461.092,0,443.369,0,421.707v15.754 c0,21.662,17.723,39.385,39.385,39.385h409.6c21.662,0,39.385-17.723,39.385-39.385v-15.754 C488.369,443.369,470.646,461.092,448.985,461.092z"/><path style="fill:#CA8B5F;" d="M448.985,153.892H31.508C14.178,153.892,0,139.713,0,122.384v15.754 c0,17.329,14.178,31.508,31.508,31.508h417.477c21.662,0,39.385,17.723,39.385,39.385v-15.754 C488.369,171.615,470.646,153.892,448.985,153.892z"/></symbol><symbol id="money" viewBox="0 0 491.508 491.508"><title>money</title><rect x="43.73" y="91.982" transform="matrix(-0.863 0.5053 -0.5053 -0.863 575.7161 242.8187)" style="fill:#31978C;" width="422.398" height="215.003"/><path style="fill:#44C4A1;" d="M354.827,40.557L67.473,208.811c6.25,10.674,2.413,24.539-8.567,30.968l64.954,110.933 c10.981-6.429,24.95-2.99,31.199,7.684l287.355-168.254c-6.25-10.674-2.415-24.538,8.568-30.968L386.026,48.241 C375.044,54.672,361.077,51.231,354.827,40.557z"/><g> <ellipse transform="matrix(-0.5053 -0.863 0.863 -0.5053 211.6118 520.2759)" style="fill:#31978C;" cx="254.939" cy="199.481" rx="73.339" ry="57.938"/> <ellipse style="fill:#31978C;" cx="396.545" cy="116.56" rx="13.107" ry="13.107"/> </g><ellipse style="fill:#3EA69B;" cx="113.32" cy="282.426" rx="13.107" ry="13.107"/><path style="fill:#44C4A1;" d="M282.084,252.029l-5.256-8.977c-11.909,5.434-24.613,6.873-38.098,4.314l2.713-15.954 c10.389,1.953,19.56,1.367,27.539-1.76l-13.969-23.857c-10.562,3.214-19.052,4.275-25.467,3.187 c-6.415-1.088-11.699-5.177-15.85-12.267c-4.151-7.09-5.075-14.337-2.754-21.756c2.324-7.415,7.34-13.651,15.056-18.719 l-3.601-6.149l7.866-4.606l3.671,6.27c9.403-4.619,19.728-6.539,30.981-5.75l-1.372,15.995c-7.67-0.683-14.916,0.368-21.761,3.16 l13.535,23.117l0.37-0.217c10.725-3.303,19.402-4.366,26.031-3.188c6.642,1.177,12.059,5.356,16.257,12.526 c4.201,7.175,5.081,14.508,2.634,21.988c-2.441,7.49-7.717,13.878-15.843,19.187l5.183,8.851L282.084,252.029z M226.933,177.736 c-1.013,3.066-0.709,5.972,0.899,8.719c1.608,2.747,3.701,4.438,6.276,5.073c2.569,0.646,6.59,0.354,12.048-0.859l-12.457-21.275 C230.2,171.886,227.944,174.665,226.933,177.736z M284.393,216.497c1.19-3.223,0.949-6.274-0.732-9.146 c-1.679-2.867-3.912-4.616-6.698-5.243c-2.796-0.621-7.081-0.228-12.859,1.173l12.958,22.131 C280.758,222.704,283.196,219.731,284.393,216.497z"/><rect x="213.926" y="91.977" transform="matrix(-0.863 0.5053 -0.5053 -0.863 575.73 242.8046)" style="fill:#F6C358;" width="82.022" height="215.003"/><g> <rect x="224.363" y="108.07" transform="matrix(-0.863 0.5053 -0.5053 -0.863 532.7446 286.6494)" style="fill:#FFFFFF;" width="6.272" height="215.003"/> <rect x="279.249" y="75.894" transform="matrix(-0.863 0.5053 -0.5053 -0.863 618.736 198.9728)" style="fill:#FFFFFF;" width="6.272" height="215.003"/> </g><rect x="45.201" y="165.264" transform="matrix(-0.982 0.1888 -0.1888 -0.982 559.6758 492.2321)" style="fill:#3EA69B;" width="422.398" height="215.003"/><path style="fill:#44C4A1;" d="M78.578,385.148l-28.985-150.8c8.331-1.601,13.786-9.652,12.185-17.983l354.49-68.135 c1.601,8.331,9.653,13.786,17.983,12.185l28.985,150.8c-8.331,1.601-13.786,9.652-12.185,17.983l-354.49,68.135 C94.96,389.002,86.909,383.546,78.578,385.148z"/><g> <ellipse transform="matrix(-0.1888 -0.982 0.982 -0.1888 36.9338 576.0731)" style="fill:#3EA69B;" cx="256.413" cy="272.781" rx="73.339" ry="57.938"/> <ellipse style="fill:#3EA69B;" cx="417.541" cy="241.809" rx="13.107" ry="13.107"/> <ellipse style="fill:#3EA69B;" cx="95.266" cy="303.757" rx="13.107" ry="13.107"/> </g><path style="fill:#44C4A1;" d="M264.488,331.374l-1.963-10.215c-13.039,1.154-25.496-1.724-37.357-8.632l7.875-14.137 c9.144,5.304,17.986,7.809,26.551,7.52l-5.218-27.149c-11.029-0.49-19.387-2.32-25.073-5.484c-5.686-3.164-9.304-8.78-10.855-16.849 c-1.551-8.068-0.006-15.208,4.655-21.43c4.662-6.216,11.47-10.424,20.434-12.631l-1.345-6.998l8.951-1.72l1.371,7.135 c10.405-1.221,20.78,0.411,31.126,4.905l-6.625,14.623c-7.004-3.2-14.186-4.624-21.569-4.274l5.056,26.306l0.421-0.081 c11.212,0.461,19.747,2.351,25.605,5.671c5.87,3.324,9.584,9.069,11.152,17.229c1.569,8.165-0.045,15.372-4.845,21.608 c-4.798,6.248-11.902,10.512-21.333,12.809l1.936,10.073L264.488,331.374z M237.254,242.948c-1.977,2.553-2.659,5.394-2.059,8.52 c0.601,3.126,2.01,5.418,4.226,6.875c2.206,1.465,6.096,2.53,11.646,3.206l-4.654-24.211 C242.284,238.521,239.23,240.389,237.254,242.948z M278.508,298.644c2.196-2.642,2.986-5.599,2.358-8.867 c-0.627-3.263-2.15-5.656-4.568-7.176c-2.429-1.517-6.6-2.575-12.514-3.18l4.841,25.185 C273.012,303.284,276.302,301.294,278.508,298.644z"/><path style="fill:#F6C358;" d="M171.553,455.444c0,19.917-38.402,36.064-85.774,36.064S0.005,475.361,0.005,455.444v-29.501h171.548 V455.444z"/><ellipse style="fill:#FCD462;" cx="85.781" cy="425.92" rx="85.775" ry="36.045"/><g> <path style="fill:#DC8744;" d="M85.779,396.924c-41.343,0-74.859,12.992-74.859,29.019c0,16.027,33.516,29.019,74.859,29.019 s74.859-12.992,74.859-29.019C160.638,409.916,127.122,396.924,85.779,396.924z M85.779,451.737 c-36.749,0-66.541-11.549-66.541-25.795c0-14.246,29.792-25.795,66.541-25.795s66.541,11.549,66.541,25.795 C152.32,440.189,122.528,451.737,85.779,451.737z"/> <path style="fill:#DC8744;" d="M83.038,445.989v-3.531c-11.402-0.451-21.637-2.208-30.693-5.27l9.107-4.207 c6.985,2.354,14.174,3.755,21.586,4.207v-9.383c-9.402-0.87-16.286-2.015-20.652-3.434c-4.366-1.419-6.549-3.523-6.549-6.311 c0-2.789,2.508-5.069,7.544-6.845c5.036-1.773,11.585-2.739,19.657-2.901v-2.419h7.98v2.466c9.148,0.26,17.799,1.468,25.952,3.629 l-8.112,4.45c-5.493-1.515-11.433-2.45-17.839-2.806v9.092h0.376c9.564,0.872,16.59,2.049,21.078,3.53 c4.498,1.484,6.742,3.637,6.742,6.457c0,2.822-2.579,5.121-7.737,6.892c-5.158,1.775-11.971,2.741-20.459,2.903v3.481H83.038z M74.235,414.772c-2.122,0.724-3.178,1.628-3.178,2.708c0,1.08,0.833,1.935,2.498,2.562c1.655,0.63,4.823,1.234,9.483,1.814v-8.368 C79.291,413.618,76.357,414.046,74.235,414.772z M100.501,435.978c2.325-0.74,3.493-1.675,3.493-2.804 c0-1.128-0.914-2.023-2.741-2.684c-1.838-0.661-5.249-1.281-10.234-1.862v8.704C95.008,437.173,98.166,436.72,100.501,435.978z"/> </g><path style="fill:#F6C358;" d="M171.553,419.615c0,19.917-38.402,36.064-85.774,36.064S0.005,439.533,0.005,419.615v-29.501h171.548 V419.615z"/><ellipse style="fill:#FCD462;" cx="85.781" cy="390.132" rx="85.775" ry="36.045"/><g> <path style="fill:#DC8744;" d="M85.779,361.095c-41.343,0-74.859,12.992-74.859,29.019c0,16.027,33.516,29.019,74.859,29.019 s74.859-12.992,74.859-29.019C160.638,374.087,127.122,361.095,85.779,361.095z M85.779,415.908 c-36.749,0-66.541-11.549-66.541-25.795c0-14.246,29.792-25.795,66.541-25.795s66.541,11.549,66.541,25.795 C152.32,404.36,122.528,415.908,85.779,415.908z"/> <path style="fill:#DC8744;" d="M83.038,410.16v-3.531c-11.402-0.451-21.637-2.208-30.693-5.27l9.107-4.207 c6.985,2.354,14.174,3.755,21.586,4.207v-9.383c-9.402-0.87-16.286-2.015-20.652-3.434c-4.366-1.419-6.549-3.523-6.549-6.311 c0-2.789,2.508-5.069,7.544-6.845c5.036-1.773,11.585-2.739,19.657-2.901v-2.419h7.98v2.466c9.148,0.26,17.799,1.468,25.952,3.629 l-8.112,4.45c-5.493-1.515-11.433-2.45-17.839-2.806v9.092h0.376c9.564,0.872,16.59,2.049,21.078,3.531 c4.498,1.484,6.742,3.637,6.742,6.457c0,2.822-2.579,5.121-7.737,6.892c-5.158,1.775-11.971,2.741-20.459,2.903v3.481H83.038z M74.235,378.943c-2.122,0.724-3.178,1.628-3.178,2.708c0,1.08,0.833,1.935,2.498,2.562c1.655,0.63,4.823,1.234,9.483,1.814v-8.368 C79.291,377.79,76.357,378.217,74.235,378.943z M100.501,400.149c2.325-0.74,3.493-1.675,3.493-2.804 c0-1.128-0.914-2.023-2.741-2.684c-1.838-0.661-5.249-1.281-10.234-1.862v8.704C95.008,401.344,98.166,400.891,100.501,400.149z"/> </g><path style="fill:#F6C358;" d="M171.553,383.786c0,19.917-38.402,36.064-85.774,36.064S0.005,403.704,0.005,383.786v-29.501h171.548 V383.786z"/><ellipse style="fill:#FCD462;" cx="85.781" cy="354.292" rx="85.775" ry="36.045"/><g> <path style="fill:#DC8744;" d="M85.779,325.266c-41.343,0-74.859,12.992-74.859,29.019c0,16.027,33.516,29.019,74.859,29.019 s74.859-12.992,74.859-29.019C160.638,338.258,127.122,325.266,85.779,325.266z M85.779,380.08 c-36.749,0-66.541-11.549-66.541-25.795c0-14.246,29.792-25.795,66.541-25.795s66.541,11.549,66.541,25.795 C152.32,368.531,122.528,380.08,85.779,380.08z"/> <path style="fill:#DC8744;" d="M83.038,374.332v-3.531c-11.402-0.451-21.637-2.208-30.693-5.27l9.107-4.207 c6.985,2.354,14.174,3.755,21.586,4.207v-9.383c-9.402-0.87-16.286-2.015-20.652-3.434c-4.366-1.419-6.549-3.523-6.549-6.311 s2.508-5.069,7.544-6.845c5.036-1.773,11.585-2.739,19.657-2.901v-2.419h7.98v2.466c9.148,0.26,17.799,1.468,25.952,3.629 l-8.112,4.45c-5.493-1.515-11.433-2.45-17.839-2.806v9.092h0.376c9.564,0.872,16.59,2.049,21.078,3.531 c4.498,1.484,6.742,3.637,6.742,6.457c0,2.822-2.579,5.121-7.737,6.892c-5.158,1.775-11.971,2.741-20.459,2.903v3.481H83.038z M74.235,343.114c-2.122,0.724-3.178,1.628-3.178,2.708c0,1.08,0.833,1.934,2.498,2.562c1.655,0.63,4.823,1.234,9.483,1.814v-8.368 C79.291,341.961,76.357,342.388,74.235,343.114z M100.501,364.321c2.325-0.74,3.493-1.675,3.493-2.804 c0-1.128-0.914-2.023-2.741-2.684c-1.838-0.661-5.249-1.281-10.234-1.862v8.704C95.008,365.515,98.166,365.062,100.501,364.321z"/> </g><path style="fill:#F6C358;" d="M171.553,347.957c0,19.917-38.402,36.064-85.774,36.064S0.005,367.875,0.005,347.957v-29.501h171.548 V347.957z"/><ellipse style="fill:#FCD462;" cx="85.781" cy="318.452" rx="85.775" ry="36.045"/><g> <path style="fill:#DC8744;" d="M85.779,289.437c-41.343,0-74.859,12.992-74.859,29.019c0,16.027,33.516,29.019,74.859,29.019 s74.859-12.992,74.859-29.019C160.638,302.429,127.122,289.437,85.779,289.437z M85.779,344.251 c-36.749,0-66.541-11.549-66.541-25.795c0-14.246,29.792-25.795,66.541-25.795s66.541,11.549,66.541,25.795 C152.32,332.702,122.528,344.251,85.779,344.251z"/> <path style="fill:#DC8744;" d="M83.038,338.503v-3.531c-11.402-0.451-21.637-2.208-30.693-5.27l9.107-4.208 c6.985,2.354,14.174,3.755,21.586,4.208v-9.383c-9.402-0.87-16.286-2.015-20.652-3.434c-4.366-1.419-6.549-3.523-6.549-6.311 s2.508-5.069,7.544-6.845c5.036-1.773,11.585-2.739,19.657-2.901v-2.419h7.98v2.466c9.148,0.26,17.799,1.468,25.952,3.629 l-8.112,4.45c-5.493-1.515-11.433-2.45-17.839-2.806v9.092h0.376c9.564,0.872,16.59,2.049,21.078,3.531 c4.498,1.484,6.742,3.637,6.742,6.457c0,2.822-2.579,5.121-7.737,6.892c-5.158,1.775-11.971,2.741-20.459,2.903v3.481H83.038z M74.235,307.285c-2.122,0.724-3.178,1.628-3.178,2.708c0,1.08,0.833,1.934,2.498,2.562c1.655,0.63,4.823,1.234,9.483,1.814v-8.368 C79.291,306.132,76.357,306.559,74.235,307.285z M100.501,328.492c2.325-0.74,3.493-1.675,3.493-2.804 c0-1.128-0.914-2.023-2.741-2.684c-1.838-0.661-5.249-1.281-10.234-1.862v8.704C95.008,329.686,98.166,329.234,100.501,328.492z"/> </g><path style="fill:#F6C358;" d="M352.436,455.444c0,19.917-38.402,36.064-85.774,36.064s-85.774-16.146-85.774-36.064v-29.501 h171.548V455.444z"/><ellipse style="fill:#FCD462;" cx="266.655" cy="425.92" rx="85.775" ry="36.045"/><g> <path style="fill:#DC8744;" d="M266.662,396.924c-41.343,0-74.859,12.992-74.859,29.019c0,16.027,33.516,29.019,74.859,29.019 s74.859-12.992,74.859-29.019C341.521,409.916,308.006,396.924,266.662,396.924z M266.662,451.737 c-36.749,0-66.541-11.549-66.541-25.795c0-14.246,29.792-25.795,66.541-25.795s66.541,11.549,66.541,25.795 C333.203,440.189,303.411,451.737,266.662,451.737z"/> <path style="fill:#DC8744;" d="M263.921,445.989v-3.531c-11.402-0.451-21.637-2.208-30.693-5.27l9.107-4.207 c6.985,2.354,14.174,3.755,21.586,4.207v-9.383c-9.402-0.87-16.286-2.015-20.652-3.434c-4.366-1.419-6.549-3.523-6.549-6.311 c0-2.789,2.508-5.069,7.544-6.845c5.036-1.773,11.585-2.739,19.657-2.901v-2.419h7.98v2.466c9.148,0.26,17.799,1.468,25.952,3.629 l-8.112,4.45c-5.493-1.515-11.433-2.45-17.839-2.806v9.092h0.376c9.564,0.872,16.59,2.049,21.078,3.53 c4.498,1.484,6.742,3.637,6.742,6.457c0,2.822-2.579,5.121-7.737,6.892c-5.158,1.775-11.971,2.741-20.459,2.903v3.481H263.921z M255.118,414.772c-2.122,0.724-3.178,1.628-3.178,2.708c0,1.08,0.833,1.935,2.498,2.562c1.655,0.63,4.823,1.234,9.483,1.814 v-8.368C260.174,413.618,257.24,414.046,255.118,414.772z M281.385,435.978c2.325-0.74,3.493-1.675,3.493-2.804 c0-1.128-0.914-2.023-2.741-2.684c-1.838-0.661-5.249-1.281-10.234-1.862v8.704C275.892,437.173,279.049,436.72,281.385,435.978z"/> </g><path style="fill:#F6C358;" d="M352.436,419.615c0,19.917-38.402,36.064-85.774,36.064s-85.774-16.146-85.774-36.064v-29.501 h171.548V419.615z"/><ellipse style="fill:#FCD462;" cx="266.655" cy="390.132" rx="85.775" ry="36.045"/><g> <path style="fill:#DC8744;" d="M266.662,361.095c-41.343,0-74.859,12.992-74.859,29.019c0,16.027,33.516,29.019,74.859,29.019 s74.859-12.992,74.859-29.019C341.521,374.087,308.006,361.095,266.662,361.095z M266.662,415.908 c-36.749,0-66.541-11.549-66.541-25.795c0-14.246,29.792-25.795,66.541-25.795s66.541,11.549,66.541,25.795 C333.203,404.36,303.411,415.908,266.662,415.908z"/> <path style="fill:#DC8744;" d="M263.921,410.16v-3.531c-11.402-0.451-21.637-2.208-30.693-5.27l9.107-4.207 c6.985,2.354,14.174,3.755,21.586,4.207v-9.383c-9.402-0.87-16.286-2.015-20.652-3.434c-4.366-1.419-6.549-3.523-6.549-6.311 c0-2.789,2.508-5.069,7.544-6.845c5.036-1.773,11.585-2.739,19.657-2.901v-2.419h7.98v2.466c9.148,0.26,17.799,1.468,25.952,3.629 l-8.112,4.45c-5.493-1.515-11.433-2.45-17.839-2.806v9.092h0.376c9.564,0.872,16.59,2.049,21.078,3.531 c4.498,1.484,6.742,3.637,6.742,6.457c0,2.822-2.579,5.121-7.737,6.892c-5.158,1.775-11.971,2.741-20.459,2.903v3.481H263.921z M255.118,378.943c-2.122,0.724-3.178,1.628-3.178,2.708c0,1.08,0.833,1.935,2.498,2.562c1.655,0.63,4.823,1.234,9.483,1.814 v-8.368C260.174,377.79,257.24,378.217,255.118,378.943z M281.385,400.149c2.325-0.74,3.493-1.675,3.493-2.804 c0-1.128-0.914-2.023-2.741-2.684c-1.838-0.661-5.249-1.281-10.234-1.862v8.704C275.892,401.344,279.049,400.891,281.385,400.149z"/> </g></symbol><symbol id="paper" viewBox="0 0 512.092 512.092"><title>paper</title><path style="fill:#FFA000;" d="M396.784,446.553L266.011,115.886c-1.446-3.641-4.771-6.196-8.661-6.656L54.683,85.38 c-5.752-0.808-11.07,3.2-11.878,8.952c-0.018,0.13-0.034,0.261-0.048,0.392L0.091,436.057c-0.763,5.841,3.353,11.196,9.194,11.959 c0.085,0.011,0.171,0.021,0.256,0.03l373.333,42.667h1.216c5.521,0.024,10.148-4.168,10.667-9.664l2.773-29.589 C397.672,449.788,397.416,448.107,396.784,446.553z"/><path style="fill:#FFE082;" d="M469.424,94.724c-0.684-5.851-5.983-10.04-11.834-9.355c-0.031,0.004-0.061,0.007-0.092,0.011 l-91.733,10.795L94.832,128.046c-5.801,0.659-9.994,5.86-9.408,11.669l32,341.333c0.519,5.496,5.146,9.688,10.667,9.664h1.216 l373.333-42.667c5.853-0.671,10.053-5.96,9.382-11.813c-0.005-0.045-0.01-0.089-0.016-0.134L469.424,94.724z"/><path style="fill:#455A64;" d="M309.424,170.713c-5.891,0.011-10.675-4.757-10.686-10.648c-0.005-2.84,1.123-5.565,3.134-7.571 l53.333-53.333c4.093-4.237,10.845-4.355,15.083-0.262c4.237,4.093,4.354,10.845,0.262,15.083c-0.086,0.089-0.173,0.176-0.262,0.262 l-53.333,53.333C314.96,169.579,312.251,170.707,309.424,170.713z"/><circle style="fill:#F44336;" cx="394.758" cy="74.713" r="53.333"/></symbol><symbol id="gear" viewBox="0 0 512 512.00077"><title>gear</title><path d="m485.964844 182.238281h-27.289063c-3.640625.035157-6.894531-2.253906-8.089843-5.695312-2.691407-8.058594-5.949219-15.921875-9.746094-23.523438-1.609375-3.285156-.941406-7.230469 1.667968-9.796875l19.351563-19.378906c10.15625-10.167969 10.15625-26.636719 0-36.804688l-36.898437-36.835937c-10.167969-10.160156-26.640626-10.160156-36.804688 0l-19.34375 19.332031c-2.5625 2.605469-6.503906 3.28125-9.789062 1.675782-7.601563-3.816407-15.46875-7.089844-23.535157-9.796876-3.449219-1.183593-5.757812-4.441406-5.726562-8.089843v-27.289063c0-14.378906-11.65625-26.035156-26.03125-26.035156h-52.070313c-14.378906 0-26.035156 11.65625-26.035156 26.035156v27.289063c.039062 3.640625-2.253906 6.898437-5.691406 8.089843-8.0625 2.707032-15.921875 5.976563-23.527344 9.789063-3.28125 1.617187-7.230469.945313-9.796875-1.664063l-19.375-19.355468c-10.179687-10.128906-26.628906-10.128906-36.804687 0l-36.828126 36.832031c-10.164062 10.164063-10.164062 26.644531 0 36.808594l28.453126 28.507812c3.441406 3.335938 8.9375 3.25 12.273437-.195312 3.253906-3.355469 3.257813-8.691407.015625-12.058594l-28.472656-28.496094c-3.386719-3.390625-3.386719-8.882812 0-12.269531l36.828125-36.832031c3.390625-3.386719 8.882812-3.386719 12.273437 0l19.386719 19.351562c7.84375 7.890625 19.859375 9.863281 29.816406 4.894531 6.875-3.441406 13.980469-6.394531 21.269531-8.839843 10.519532-3.5625 17.582032-13.453125 17.539063-24.5625v-27.289063c0-4.792968 3.882813-8.679687 8.675781-8.679687h52.070313c4.789062 0 8.675781 3.886719 8.675781 8.679687v27.289063c-.042969 11.105469 7.019531 20.992187 17.539062 24.550781 7.292969 2.449219 14.402344 5.40625 21.277344 8.851562 9.957032 4.945313 21.960938 2.96875 29.808594-4.902343l19.386719-19.34375c3.390625-3.386719 8.882812-3.386719 12.273437 0l36.828125 36.839843c3.378907 3.386719 3.378907 8.875 0 12.261719l-19.351562 19.386719c-7.882813 7.847656-9.855469 19.863281-4.894531 29.816406 3.441406 6.875 6.394531 13.984375 8.84375 21.269532 3.558593 10.523437 13.449218 17.585937 24.558593 17.539062h27.289063c4.792968 0 8.679687 3.886719 8.679687 8.679688v52.066406c0 4.792968-3.886719 8.675781-8.679687 8.675781h-27.289063c-11.105469-.042969-20.992187 7.019531-24.550781 17.539063-2.449219 7.292968-5.40625 14.402343-8.851562 21.277343-4.953126 9.957031-2.976563 21.964844 4.902343 29.8125l19.351563 19.386719c3.386718 3.386719 3.386718 8.878906 0 12.269531l-36.847656 36.828125c-3.386719 3.382813-8.875 3.382813-12.261719 0l-28.515625-28.453125c-3.335938-3.445312-8.828125-3.53125-12.269532-.195312-3.445312 3.335937-3.53125 8.828125-.195312 12.269531.066406.074219.140625.144531.210938.210938l28.507812 28.457031c10.164062 10.15625 26.636719 10.15625 36.804688 0l36.828124-36.820313c10.164063-10.167968 10.164063-26.644531 0-36.8125l-19.324218-19.363281c-2.605469-2.5625-3.277344-6.503906-1.675782-9.789063 3.816407-7.601562 7.089844-15.46875 9.796876-23.53125 1.179687-3.453124 4.441406-5.761718 8.089843-5.730468h27.289063c14.378906 0 26.035156-11.652344 26.035156-26.03125v-52.070313c0-14.375-11.65625-26.03125-26.035156-26.03125zm0 0" fill="#ffc477"/><path d="m357.464844 154.539062c-44.082032-43.992187-115.457032-43.992187-159.539063 0-3.328125 3.445313-3.230469 8.9375.214844 12.269532 3.363281 3.246094 8.695313 3.246094 12.058594 0 37.027343-37.527344 97.464843-37.933594 134.992187-.90625s37.933594 97.46875.90625 134.996094c-.300781.304687-.601562.605468-.90625.90625-3.445312 3.328124-3.539062 8.820312-.210937 12.269531 3.332031 3.445312 8.824219 3.542969 12.269531.210937.074219-.070312.144531-.140625.214844-.210937 43.988281-44.082031 43.988281-115.457031 0-159.535157zm0 0" fill="#ffb655"/><path d="m164.558594 416.542969c-1.96875 0-3.886719-.199219-5.8125-.375-.945313-.085938-1.925782-.078125-2.863282-.199219-2.8125-.375-5.605468-.90625-8.355468-1.597656-37.144532-9.605469-59.46875-47.503906-49.863282-84.644532 6.324219-24.449218 25.414063-43.539062 49.863282-49.863281 5.671875-1.429687 11.5-2.15625 17.355468-2.167969v-95.457031h-17.355468c-9.585938 0-17.359375 7.769531-17.359375 17.355469v9.546875c0 7.191406-4.460938 13.628906-11.195313 16.15625-2.601562.988281-5.160156 2.058594-7.679687 3.203125-6.558594 3.003906-14.292969 1.621094-19.402344-3.472656l-6.847656-6.777344c-6.773438-6.761719-17.746094-6.761719-24.523438 0l-24.488281 24.542969c-6.765625 6.773437-6.765625 17.746093 0 24.523437l6.785156 6.8125c5.097656 5.109375 6.480469 12.84375 3.472656 19.402344-1.15625 2.519531-2.222656 5.078125-3.203124 7.679688-2.53125 6.742187-8.980469 11.203124-16.183594 11.195312h-9.546875c-9.585938 0-17.355469 7.769531-17.355469 17.355469v34.710937c0 9.585938 7.769531 17.359375 17.355469 17.359375h9.546875c7.191406 0 13.628906 4.460938 16.15625 11.191407.992187 2.605468 2.058594 5.164062 3.203125 7.683593 3.007812 6.558594 1.621093 14.292969-3.46875 19.402344l-6.777344 6.847656c-6.765625 6.773438-6.765625 17.746094 0 24.523438l24.523437 24.523437c6.773438 6.765625 17.746094 6.765625 24.523438 0l6.8125-6.785156c5.109375-5.09375 12.84375-6.476562 19.402344-3.472656 2.519531 1.15625 5.078125 2.222656 7.679687 3.203125 6.738281 2.523437 11.203125 8.957031 11.214844 16.148437v9.546875c0 9.585938 7.769531 17.355469 17.355469 17.355469h17.355468v-95.457031zm0 0" fill="#ffaf46"/><path d="m312.40625 312.40625h-9.542969c-7.191406-.003906-13.628906-4.460938-16.160156-11.195312-.988281-2.601563-2.054687-5.164063-3.203125-7.679688-3.007812-6.558594-1.621094-14.296875 3.472656-19.402344l6.785156-6.8125c6.765626-6.777344 6.765626-17.75 0-24.523437l-24.523437-24.527344c-6.773437-6.761719-17.746094-6.761719-24.523437 0l-6.8125 6.789063c-5.109376 5.089843-12.84375 6.476562-19.402344 3.46875-2.519532-1.15625-5.078125-2.222657-7.679688-3.199219-6.753906-2.527344-11.226562-8.976563-11.222656-16.1875v-9.542969c0-9.585938-7.769531-17.359375-17.355469-17.359375h-17.355469v95.457031c2.875.019532 5.746094.214844 8.597657.589844.824219.097656 1.632812.246094 2.4375.375 2.109375.328125 4.175781.761719 6.214843 1.285156.746094.191406 1.5.355469 2.238282.570313 2.636718.757812 5.222656 1.671875 7.75 2.734375.304687.132812.582031.296875.867187.425781 2.207031.980469 4.359375 2.078125 6.449219 3.289063.703125.410156 1.386719.867187 2.082031 1.257812 1.738281 1.101562 3.472657 2.28125 5.121094 3.523438.546875.417968 1.117187.808593 1.65625 1.242187 2.097656 1.679687 4.09375 3.476563 5.988281 5.378906.355469.363281.667969.753907 1.015625 1.128907 1.527344 1.609374 2.972657 3.289062 4.339844 5.042968.5.640625.988281 1.300782 1.472656 1.96875 1.242188 1.734375 2.414063 3.472656 3.472657 5.34375.3125.53125.660156 1.042969.964843 1.578125 1.316407 2.375 2.492188 4.824219 3.523438 7.335938.234375.582031.421875 1.179687.648437 1.734375.765625 2.023437 1.441406 4.078125 2.015625 6.179687.222657.816407.433594 1.628907.632813 2.457031.53125 2.261719.949218 4.554688 1.25 6.863282.066406.511718.171875 1.007812.234375 1.519531.285156 2.523437.4375 5.058594.449219 7.601563 0 .347656 0 .683593-.050782 1.03125 0 .738281-.078125 1.492187-.113281 2.238281-.105469 2.230469-.304687 4.433593-.617187 6.613281-.136719 1.023438-.285157 2.039062-.46875 3.0625-.292969 1.554688-.675782 3.066406-1.066407 4.582031-2.144531 8.769531-5.660156 17.140625-10.414062 24.8125-.886719 1.433594-1.957031 2.746094-3.183594 3.902344-4.421875 4.117187-9.21875 7.808594-14.328125 11.03125l-1.128906.738281c-1.257813.78125-2.515625 1.605469-3.78125 2.300782-5.25 2.972656-10.867188 5.246093-16.707032 6.757812l-1.039062.269531c-2.492188.609375-5.011719 1.082031-7.550781 1.414063-.390625.054687-.78125.128906-1.171875.175781-2.589844.308594-5.195313.472656-7.800782.492187v95.457032h17.355469c9.585938 0 17.355469-7.769532 17.355469-17.355469v-9.546875c.003906-7.191406 4.460938-13.625 11.195312-16.15625 2.605469-.988281 5.164063-2.054688 7.679688-3.203125 6.558594-3.003906 14.292969-1.621094 19.402344 3.472656l6.8125 6.785157c6.777344 6.765624 17.75 6.765624 24.523437 0l24.527344-24.523438c6.761719-6.773438 6.761719-17.75 0-24.523438l-6.789063-6.8125c-5.089843-5.109374-6.476562-12.847656-3.46875-19.402343 1.15625-2.519531 2.222657-5.078125 3.199219-7.683594 2.527344-6.75 8.976563-11.222656 16.1875-11.21875h9.542969c9.585938 0 17.359375-7.769531 17.359375-17.355469v-34.710937c-.003906-9.585938-7.773437-17.355469-17.359375-17.355469zm0 0" fill="#ffbb60"/></symbol><symbol id="bill" viewBox="-79 0 511 511.94701"><title>bill</title><path d="m353.578125 17.882812v476.179688c.035156 3.585938-2.101563 6.835938-5.410156 8.226562-3.304688 1.386719-7.125.636719-9.660157-1.898437l-22.828124-23.152344c-1.644532-1.679687-3.890626-2.625-6.238282-2.625-2.351562 0-4.597656.945313-6.242187 2.625l-31.65625 32.085938c-1.644531 1.679687-3.894531 2.621093-6.242188 2.621093-2.347656 0-4.597656-.941406-6.242187-2.621093l-31.652344-32.113281c-1.644531-1.675782-3.894531-2.621094-6.242188-2.621094-2.347656 0-4.597656.945312-6.242187 2.621094l-31.65625 32.113281c-1.640625 1.679687-3.890625 2.621093-6.238281 2.621093-2.351563 0-4.597656-.941406-6.242188-2.621093l-31.65625-32.113281c-1.644531-1.675782-3.894531-2.621094-6.242187-2.621094-2.347657 0-4.597657.945312-6.238281 2.621094l-31.65625 32.113281c-1.644532 1.679687-3.894532 2.621093-6.242188 2.621093s-4.597656-.941406-6.242188-2.621093l-31.65625-32.113281c-1.640624-1.675782-3.890624-2.621094-6.238281-2.621094-2.347656 0-4.597656.945312-6.242187 2.621094l-22.828125 23.152343c-2.53125 2.535157-6.34375 3.285157-9.648438 1.902344-3.304687-1.382813-5.445312-4.621094-5.421875-8.203125v-476.179688c-.035156-3.585937 2.105469-6.835937 5.410156-8.222656 3.304688-1.390625 7.125-.640625 9.660157 1.894532l22.828125 23.15625c1.644531 1.675781 3.894531 2.621093 6.242187 2.621093 2.347657 0 4.597657-.945312 6.238281-2.621093l31.65625-32.089844c1.644532-1.675782 3.894532-2.621094 6.242188-2.621094s4.597656.945312 6.242188 2.621094l31.65625 32.117187c1.640624 1.675781 3.890624 2.621094 6.238281 2.621094 2.347656 0 4.597656-.945313 6.242187-2.621094l31.65625-32.117187c1.644532-1.675782 3.890625-2.621094 6.242188-2.621094 2.347656 0 4.597656.945312 6.238281 2.621094l31.65625 32.117187c1.644531 1.675781 3.894531 2.621094 6.242187 2.621094 2.347657 0 4.597657-.945313 6.242188-2.621094l31.652344-32.117187c1.644531-1.675782 3.894531-2.621094 6.242187-2.621094 2.347657 0 4.597657.945312 6.242188 2.621094l31.65625 32.117187c1.644531 1.675781 3.890625 2.621094 6.242187 2.621094 2.347656 0 4.59375-.945313 6.238282-2.621094l22.828124-23.15625c2.535157-2.53125 6.34375-3.285156 9.648438-1.902343 3.304688 1.382812 5.445312 4.625 5.421875 8.203124zm0 0" fill="#7ed09e"/><g fill="#4c8056"><path d="m53.441406 105.90625c-2.34375-.003906-4.589844-.933594-6.242187-2.589844l-17.65625-17.652344c-3.34375-3.464843-3.296875-8.972656.109375-12.375 3.402344-3.40625 8.910156-3.453124 12.371094-.109374l17.65625 17.65625c2.523437 2.523437 3.28125 6.320312 1.914062 9.617187-1.367188 3.300781-4.585938 5.449219-8.152344 5.453125zm0 0"/><path d="m35.785156 105.90625c-3.570312-.003906-6.789062-2.152344-8.15625-5.453125-1.363281-3.296875-.609375-7.09375 1.914063-9.617187l17.65625-17.65625c3.464843-3.34375 8.96875-3.296876 12.375.109374 3.402343 3.402344 3.453125 8.910157.105469 12.375l-17.65625 17.652344c-1.652344 1.65625-3.898438 2.585938-6.238282 2.589844zm0 0"/><path d="m318.265625 105.90625c-2.339844-.003906-4.585937-.933594-6.238281-2.589844l-17.65625-17.652344c-3.347656-3.464843-3.296875-8.972656.105468-12.375 3.40625-3.40625 8.914063-3.453124 12.375-.109374l17.65625 17.65625c2.523438 2.523437 3.277344 6.320312 1.914063 9.617187-1.367187 3.300781-4.585937 5.449219-8.15625 5.453125zm0 0"/><path d="m300.613281 105.90625c-3.570312-.003906-6.789062-2.152344-8.15625-5.453125-1.363281-3.296875-.609375-7.09375 1.914063-9.617187l17.65625-17.65625c3.460937-3.34375 8.96875-3.296876 12.375.109374 3.402344 3.402344 3.453125 8.910157.105468 12.375l-17.65625 17.652344c-1.652343 1.65625-3.898437 2.585938-6.238281 2.589844zm0 0"/><path d="m88.75 132.386719c-4.875 0-8.828125-3.953125-8.828125-8.828125v-52.964844c0-4.875 3.953125-8.828125 8.828125-8.828125s8.828125 3.953125 8.828125 8.828125v52.964844c0 4.875-3.953125 8.828125-8.828125 8.828125zm0 0"/><path d="m115.234375 114.730469h-26.484375c-4.875 0-8.828125-3.949219-8.828125-8.824219v-35.3125c0-4.875 3.953125-8.828125 8.828125-8.828125h26.484375c9.75 0 17.652344 7.90625 17.652344 17.65625v17.65625c0 9.75-7.902344 17.652344-17.652344 17.652344zm-17.65625-17.652344h17.65625v-17.65625h-17.65625zm0 0"/><path d="m185.851562 132.386719c-4.875 0-8.824218-3.953125-8.824218-8.828125v-44.136719h-17.65625v44.136719c0 4.875-3.953125 8.828125-8.828125 8.828125s-8.828125-3.953125-8.828125-8.828125v-44.136719c0-9.75 7.90625-17.65625 17.65625-17.65625h17.65625c9.75 0 17.652344 7.90625 17.652344 17.65625v44.136719c0 4.875-3.949219 8.828125-8.828126 8.828125zm0 0"/><path d="m185.851562 114.730469h-35.308593c-4.875 0-8.828125-3.949219-8.828125-8.824219 0-4.878906 3.953125-8.828125 8.828125-8.828125h35.308593c4.878907 0 8.828126 3.949219 8.828126 8.828125 0 4.875-3.949219 8.824219-8.828126 8.824219zm0 0"/><path d="m212.335938 132.386719c-4.875 0-8.828126-3.953125-8.828126-8.828125v-52.964844c0-4.875 3.953126-8.828125 8.828126-8.828125s8.828124 3.953125 8.828124 8.828125v52.964844c0 4.875-3.953124 8.828125-8.828124 8.828125zm0 0"/><path d="m256.472656 132.386719h-17.652344c-4.875 0-8.828124-3.953125-8.828124-8.828125v-52.964844c0-4.875 3.953124-8.828125 8.828124-8.828125h17.652344c14.628906 0 26.484375 11.859375 26.484375 26.484375v17.65625c0 14.625-11.855469 26.480469-26.484375 26.480469zm-8.828125-17.65625h8.828125c4.875 0 8.828125-3.949219 8.828125-8.824219v-17.65625c0-4.875-3.953125-8.828125-8.828125-8.828125h-8.828125zm0 0"/></g><path d="m44.613281 158.871094h114.757813c4.875 0 8.828125 3.953125 8.828125 8.828125v17.652343c0 4.875-3.953125 8.828126-8.828125 8.828126h-114.757813c-4.875 0-8.828125-3.953126-8.828125-8.828126v-17.652343c0-4.875 3.953125-8.828125 8.828125-8.828125zm0 0" fill="#bbd1b5"/><path d="m212.335938 158.871094h97.105468c4.875 0 8.824219 3.953125 8.824219 8.828125v17.652343c0 4.875-3.949219 8.828126-8.824219 8.828126h-97.105468c-4.875 0-8.828126-3.953126-8.828126-8.828126v-17.652343c0-4.875 3.953126-8.828125 8.828126-8.828125zm0 0" fill="#bbd1b5"/><path d="m44.613281 229.492188h114.757813c4.875 0 8.828125 3.949218 8.828125 8.824218v17.65625c0 4.875-3.953125 8.828125-8.828125 8.828125h-114.757813c-4.875 0-8.828125-3.953125-8.828125-8.828125v-17.65625c0-4.875 3.953125-8.824218 8.828125-8.824218zm0 0" fill="#bbd1b5"/><path d="m212.335938 229.492188h97.105468c4.875 0 8.824219 3.949218 8.824219 8.824218v17.65625c0 4.875-3.949219 8.828125-8.824219 8.828125h-97.105468c-4.875 0-8.828126-3.953125-8.828126-8.828125v-17.65625c0-4.875 3.953126-8.824218 8.828126-8.824218zm0 0" fill="#bbd1b5"/><path d="m44.613281 300.113281h114.757813c4.875 0 8.828125 3.949219 8.828125 8.824219v17.65625c0 4.875-3.953125 8.828125-8.828125 8.828125h-114.757813c-4.875 0-8.828125-3.953125-8.828125-8.828125v-17.65625c0-4.875 3.953125-8.824219 8.828125-8.824219zm0 0" fill="#bbd1b5"/><path d="m212.335938 300.113281h97.105468c4.875 0 8.824219 3.949219 8.824219 8.824219v17.65625c0 4.875-3.949219 8.828125-8.824219 8.828125h-97.105468c-4.875 0-8.828126-3.953125-8.828126-8.828125v-17.65625c0-4.875 3.953126-8.824219 8.828126-8.824219zm0 0" fill="#bbd1b5"/><path d="m141.714844 370.730469h167.726562c4.875 0 8.824219 3.953125 8.824219 8.828125v44.140625c0 4.875-3.949219 8.824219-8.824219 8.824219h-167.726562c-4.875 0-8.828125-3.949219-8.828125-8.824219v-44.140625c0-4.875 3.953125-8.828125 8.828125-8.828125zm0 0" fill="#f5efca"/></symbol></svg>