<svg xmlns="http://www.w3.org/2000/svg" style="display: none;"><symbol id="wallet" viewBox="0 0 504.123 504.123"><title>wallet</title><path style="fill:#A86A3F;" d="M39.385,83h393.846c21.662,0,39.385,17.723,39.385,39.385v47.262 c0,21.662-17.723,39.385-39.385,39.385H39.385C17.723,209.03,0,191.307,0,169.646v-47.262C0,100.723,17.723,83,39.385,83z"/><path style="fill:#3DB39E;" d="M125.637,125.141l246.548-65.378c8.271-2.363,16.935,2.757,19.298,11.028l40.96,151.237 c2.363,8.271-2.757,16.935-11.028,19.298L100.431,326.79c-8.271,2.363-16.935-2.757-19.298-11.028L51.2,204.698L125.637,125.141z"/><path style="fill:#78CABB;" d="M389.514,217.301l-53.169,14.178c-4.332,1.182-8.665-1.182-9.452-5.514 c-1.182-4.332,1.182-8.665,5.514-9.452l45.686-12.209l-24.418-91.372l-45.686,12.209c-4.332,1.182-8.665-1.182-9.452-5.514 c-1.182-4.332,1.182-8.665,5.514-9.452l53.169-14.178c4.332-1.182,8.665,1.182,9.452,5.514l28.357,106.338 C396.209,212.181,393.846,216.513,389.514,217.301z M168.96,276.772l-53.169,14.178c-4.332,1.182-8.665-1.182-9.452-5.514 L77.982,179.098c-1.182-4.332,1.182-8.665,5.514-9.452l53.169-14.178c4.332-1.182,8.665,1.182,9.452,5.514 c1.182,4.332-1.182,8.665-5.514,9.452l-45.686,12.209l24.418,91.372l45.686-12.209c4.332-1.182,8.665,1.182,9.452,5.514 C175.655,271.258,173.292,275.59,168.96,276.772z"/><path style="fill:#5ABEAC;" d="M3.151,180.28C73.255,140.107,262.302,29.436,262.302,29.436c7.483-4.332,17.329-1.969,21.662,5.514 l78.769,135.483c4.332,7.483,1.575,16.935-5.908,21.268L68.529,357.116c-7.483,4.332-17.329,1.969-21.662-5.514 c0,0-22.055-44.898-44.111-82.708C2.757,180.28,3.151,209.424,3.151,180.28z"/><path style="fill:#8CD2C5;" d="M322.56,166.101L267.422,70.79c-2.363-3.938-7.089-5.12-10.634-2.757l-47.655,27.569 c-3.938,2.363-5.12,7.089-2.757,10.634c2.363,3.938,7.089,5.12,10.634,2.757l40.96-23.631l47.262,81.92l-40.96,23.631 c-3.938,2.363-5.12,7.089-2.757,10.634c2.363,3.938,7.089,5.12,10.634,2.757l47.655-27.569 C323.348,174.766,324.923,170.04,322.56,166.101z M113.822,277.56l-40.96,23.631L25.6,219.27l40.96-23.631 c3.938-2.363,5.12-7.089,2.757-10.634c-2.363-3.938-7.089-5.12-10.634-2.757l-47.655,27.569c-3.938,2.363-5.12,7.089-2.757,10.634 l55.138,95.311c2.363,3.938,7.089,5.12,10.634,2.757l47.655-27.569c3.938-2.363,5.12-7.089,2.757-10.634 C122.486,276.772,117.76,275.196,113.822,277.56z M133.908,138.532c-30.326,17.329-40.566,55.926-23.237,86.252 c17.723,30.326,55.926,40.566,86.252,23.237s40.566-55.926,23.237-86.252C202.437,131.836,164.234,121.203,133.908,138.532z M322.56,166.101L267.422,70.79c-2.363-3.938-7.089-5.12-10.634-2.757l-47.655,27.569c-3.938,2.363-5.12,7.089-2.757,10.634 c2.363,3.938,7.089,5.12,10.634,2.757l40.96-23.631l47.262,81.92l-40.96,23.631c-3.938,2.363-5.12,7.089-2.757,10.634 c2.363,3.938,7.089,5.12,10.634,2.757l47.655-27.569C323.348,174.766,324.923,170.04,322.56,166.101z M113.822,277.56l-40.96,23.631 L25.6,219.27l40.96-23.631c3.938-2.363,5.12-7.089,2.757-10.634c-2.363-3.938-7.089-5.12-10.634-2.757l-47.655,27.569 c-3.938,2.363-5.12,7.089-2.757,10.634l55.138,95.311c2.363,3.938,7.089,5.12,10.634,2.757l47.655-27.569 c3.938-2.363,5.12-7.089,2.757-10.634C122.486,276.772,117.76,275.196,113.822,277.56z M133.908,138.532 c-30.326,17.329-40.566,55.926-23.237,86.252c17.723,30.326,55.926,40.566,86.252,23.237s40.566-55.926,23.237-86.252 C202.437,131.836,164.234,121.203,133.908,138.532z"/><path style="fill:#C47E4D;" d="M448.985,476.846h-409.6C17.723,476.846,0,459.123,0,437.461V153.892h448.985 c21.662,0,39.385,17.723,39.385,39.385v244.185C488.369,459.123,470.646,476.846,448.985,476.846z M31.508,153.892H0v-31.508 C0,139.713,14.178,153.892,31.508,153.892z"/><path style="fill:#A86A3F;" d="M488.369,378.384h-63.015c-30.326,0-55.138-24.812-55.138-55.138s24.812-55.138,55.138-55.138h63.015 c8.665,0,15.754,7.089,15.754,15.754v78.769C504.123,371.295,497.034,378.384,488.369,378.384z"/><path style="fill:#EFC75E;" d="M425.354,291.738c17.329,0,31.508,14.178,31.508,31.508s-14.178,31.508-31.508,31.508 c-17.329,0-31.508-14.178-31.508-31.508S408.025,291.738,425.354,291.738z"/><path style="fill:#D7B354;" d="M433.231,346.876c-17.329,0-31.508-14.178-31.508-31.508c0-6.695,1.969-12.997,5.514-18.117 c-8.271,5.514-13.391,14.966-13.391,25.994c0,17.329,14.178,31.508,31.508,31.508c10.634,0,20.086-5.514,25.994-13.391 C446.228,344.907,439.926,346.876,433.231,346.876z"/><path style="fill:#B27245;" d="M448.985,461.092h-409.6C17.723,461.092,0,443.369,0,421.707v15.754 c0,21.662,17.723,39.385,39.385,39.385h409.6c21.662,0,39.385-17.723,39.385-39.385v-15.754 C488.369,443.369,470.646,461.092,448.985,461.092z"/><path style="fill:#CA8B5F;" d="M448.985,153.892H31.508C14.178,153.892,0,139.713,0,122.384v15.754 c0,17.329,14.178,31.508,31.508,31.508h417.477c21.662,0,39.385,17.723,39.385,39.385v-15.754 C488.369,171.615,470.646,153.892,448.985,153.892z"/></symbol><symbol id="paper" viewBox="0 0 512.092 512.092"><title>paper</title><path style="fill:#FFA000;" d="M396.784,446.553L266.011,115.886c-1.446-3.641-4.771-6.196-8.661-6.656L54.683,85.38 c-5.752-0.808-11.07,3.2-11.878,8.952c-0.018,0.13-0.034,0.261-0.048,0.392L0.091,436.057c-0.763,5.841,3.353,11.196,9.194,11.959 c0.085,0.011,0.171,0.021,0.256,0.03l373.333,42.667h1.216c5.521,0.024,10.148-4.168,10.667-9.664l2.773-29.589 C397.672,449.788,397.416,448.107,396.784,446.553z"/><path style="fill:#FFE082;" d="M469.424,94.724c-0.684-5.851-5.983-10.04-11.834-9.355c-0.031,0.004-0.061,0.007-0.092,0.011 l-91.733,10.795L94.832,128.046c-5.801,0.659-9.994,5.86-9.408,11.669l32,341.333c0.519,5.496,5.146,9.688,10.667,9.664h1.216 l373.333-42.667c5.853-0.671,10.053-5.96,9.382-11.813c-0.005-0.045-0.01-0.089-0.016-0.134L469.424,94.724z"/><path style="fill:#455A64;" d="M309.424,170.713c-5.891,0.011-10.675-4.757-10.686-10.648c-0.005-2.84,1.123-5.565,3.134-7.571 l53.333-53.333c4.093-4.237,10.845-4.355,15.083-0.262c4.237,4.093,4.354,10.845,0.262,15.083c-0.086,0.089-0.173,0.176-0.262,0.262 l-53.333,53.333C314.96,169.579,312.251,170.707,309.424,170.713z"/><circle style="fill:#F44336;" cx="394.758" cy="74.713" r="53.333"/></symbol><symbol id="gear" viewBox="0 0 512 512.00077"><title>gear</title><path d="m485.964844 182.238281h-27.289063c-3.640625.035157-6.894531-2.253906-8.089843-5.695312-2.691407-8.058594-5.949219-15.921875-9.746094-23.523438-1.609375-3.285156-.941406-7.230469 1.667968-9.796875l19.351563-19.378906c10.15625-10.167969 10.15625-26.636719 0-36.804688l-36.898437-36.835937c-10.167969-10.160156-26.640626-10.160156-36.804688 0l-19.34375 19.332031c-2.5625 2.605469-6.503906 3.28125-9.789062 1.675782-7.601563-3.816407-15.46875-7.089844-23.535157-9.796876-3.449219-1.183593-5.757812-4.441406-5.726562-8.089843v-27.289063c0-14.378906-11.65625-26.035156-26.03125-26.035156h-52.070313c-14.378906 0-26.035156 11.65625-26.035156 26.035156v27.289063c.039062 3.640625-2.253906 6.898437-5.691406 8.089843-8.0625 2.707032-15.921875 5.976563-23.527344 9.789063-3.28125 1.617187-7.230469.945313-9.796875-1.664063l-19.375-19.355468c-10.179687-10.128906-26.628906-10.128906-36.804687 0l-36.828126 36.832031c-10.164062 10.164063-10.164062 26.644531 0 36.808594l28.453126 28.507812c3.441406 3.335938 8.9375 3.25 12.273437-.195312 3.253906-3.355469 3.257813-8.691407.015625-12.058594l-28.472656-28.496094c-3.386719-3.390625-3.386719-8.882812 0-12.269531l36.828125-36.832031c3.390625-3.386719 8.882812-3.386719 12.273437 0l19.386719 19.351562c7.84375 7.890625 19.859375 9.863281 29.816406 4.894531 6.875-3.441406 13.980469-6.394531 21.269531-8.839843 10.519532-3.5625 17.582032-13.453125 17.539063-24.5625v-27.289063c0-4.792968 3.882813-8.679687 8.675781-8.679687h52.070313c4.789062 0 8.675781 3.886719 8.675781 8.679687v27.289063c-.042969 11.105469 7.019531 20.992187 17.539062 24.550781 7.292969 2.449219 14.402344 5.40625 21.277344 8.851562 9.957032 4.945313 21.960938 2.96875 29.808594-4.902343l19.386719-19.34375c3.390625-3.386719 8.882812-3.386719 12.273437 0l36.828125 36.839843c3.378907 3.386719 3.378907 8.875 0 12.261719l-19.351562 19.386719c-7.882813 7.847656-9.855469 19.863281-4.894531 29.816406 3.441406 6.875 6.394531 13.984375 8.84375 21.269532 3.558593 10.523437 13.449218 17.585937 24.558593 17.539062h27.289063c4.792968 0 8.679687 3.886719 8.679687 8.679688v52.066406c0 4.792968-3.886719 8.675781-8.679687 8.675781h-27.289063c-11.105469-.042969-20.992187 7.019531-24.550781 17.539063-2.449219 7.292968-5.40625 14.402343-8.851562 21.277343-4.953126 9.957031-2.976563 21.964844 4.902343 29.8125l19.351563 19.386719c3.386718 3.386719 3.386718 8.878906 0 12.269531l-36.847656 36.828125c-3.386719 3.382813-8.875 3.382813-12.261719 0l-28.515625-28.453125c-3.335938-3.445312-8.828125-3.53125-12.269532-.195312-3.445312 3.335937-3.53125 8.828125-.195312 12.269531.066406.074219.140625.144531.210938.210938l28.507812 28.457031c10.164062 10.15625 26.636719 10.15625 36.804688 0l36.828124-36.820313c10.164063-10.167968 10.164063-26.644531 0-36.8125l-19.324218-19.363281c-2.605469-2.5625-3.277344-6.503906-1.675782-9.789063 3.816407-7.601562 7.089844-15.46875 9.796876-23.53125 1.179687-3.453124 4.441406-5.761718 8.089843-5.730468h27.289063c14.378906 0 26.035156-11.652344 26.035156-26.03125v-52.070313c0-14.375-11.65625-26.03125-26.035156-26.03125zm0 0" fill="#ffc477"/><path d="m357.464844 154.539062c-44.082032-43.992187-115.457032-43.992187-159.539063 0-3.328125 3.445313-3.230469 8.9375.214844 12.269532 3.363281 3.246094 8.695313 3.246094 12.058594 0 37.027343-37.527344 97.464843-37.933594 134.992187-.90625s37.933594 97.46875.90625 134.996094c-.300781.304687-.601562.605468-.90625.90625-3.445312 3.328124-3.539062 8.820312-.210937 12.269531 3.332031 3.445312 8.824219 3.542969 12.269531.210937.074219-.070312.144531-.140625.214844-.210937 43.988281-44.082031 43.988281-115.457031 0-159.535157zm0 0" fill="#ffb655"/><path d="m164.558594 416.542969c-1.96875 0-3.886719-.199219-5.8125-.375-.945313-.085938-1.925782-.078125-2.863282-.199219-2.8125-.375-5.605468-.90625-8.355468-1.597656-37.144532-9.605469-59.46875-47.503906-49.863282-84.644532 6.324219-24.449218 25.414063-43.539062 49.863282-49.863281 5.671875-1.429687 11.5-2.15625 17.355468-2.167969v-95.457031h-17.355468c-9.585938 0-17.359375 7.769531-17.359375 17.355469v9.546875c0 7.191406-4.460938 13.628906-11.195313 16.15625-2.601562.988281-5.160156 2.058594-7.679687 3.203125-6.558594 3.003906-14.292969 1.621094-19.402344-3.472656l-6.847656-6.777344c-6.773438-6.761719-17.746094-6.761719-24.523438 0l-24.488281 24.542969c-6.765625 6.773437-6.765625 17.746093 0 24.523437l6.785156 6.8125c5.097656 5.109375 6.480469 12.84375 3.472656 19.402344-1.15625 2.519531-2.222656 5.078125-3.203124 7.679688-2.53125 6.742187-8.980469 11.203124-16.183594 11.195312h-9.546875c-9.585938 0-17.355469 7.769531-17.355469 17.355469v34.710937c0 9.585938 7.769531 17.359375 17.355469 17.359375h9.546875c7.191406 0 13.628906 4.460938 16.15625 11.191407.992187 2.605468 2.058594 5.164062 3.203125 7.683593 3.007812 6.558594 1.621093 14.292969-3.46875 19.402344l-6.777344 6.847656c-6.765625 6.773438-6.765625 17.746094 0 24.523438l24.523437 24.523437c6.773438 6.765625 17.746094 6.765625 24.523438 0l6.8125-6.785156c5.109375-5.09375 12.84375-6.476562 19.402344-3.472656 2.519531 1.15625 5.078125 2.222656 7.679687 3.203125 6.738281 2.523437 11.203125 8.957031 11.214844 16.148437v9.546875c0 9.585938 7.769531 17.355469 17.355469 17.355469h17.355468v-95.457031zm0 0" fill="#ffaf46"/><path d="m312.40625 312.40625h-9.542969c-7.191406-.003906-13.628906-4.460938-16.160156-11.195312-.988281-2.601563-2.054687-5.164063-3.203125-7.679688-3.007812-6.558594-1.621094-14.296875 3.472656-19.402344l6.785156-6.8125c6.765626-6.777344 6.765626-17.75 0-24.523437l-24.523437-24.527344c-6.773437-6.761719-17.746094-6.761719-24.523437 0l-6.8125 6.789063c-5.109376 5.089843-12.84375 6.476562-19.402344 3.46875-2.519532-1.15625-5.078125-2.222657-7.679688-3.199219-6.753906-2.527344-11.226562-8.976563-11.222656-16.1875v-9.542969c0-9.585938-7.769531-17.359375-17.355469-17.359375h-17.355469v95.457031c2.875.019532 5.746094.214844 8.597657.589844.824219.097656 1.632812.246094 2.4375.375 2.109375.328125 4.175781.761719 6.214843 1.285156.746094.191406 1.5.355469 2.238282.570313 2.636718.757812 5.222656 1.671875 7.75 2.734375.304687.132812.582031.296875.867187.425781 2.207031.980469 4.359375 2.078125 6.449219 3.289063.703125.410156 1.386719.867187 2.082031 1.257812 1.738281 1.101562 3.472657 2.28125 5.121094 3.523438.546875.417968 1.117187.808593 1.65625 1.242187 2.097656 1.679687 4.09375 3.476563 5.988281 5.378906.355469.363281.667969.753907 1.015625 1.128907 1.527344 1.609374 2.972657 3.289062 4.339844 5.042968.5.640625.988281 1.300782 1.472656 1.96875 1.242188 1.734375 2.414063 3.472656 3.472657 5.34375.3125.53125.660156 1.042969.964843 1.578125 1.316407 2.375 2.492188 4.824219 3.523438 7.335938.234375.582031.421875 1.179687.648437 1.734375.765625 2.023437 1.441406 4.078125 2.015625 6.179687.222657.816407.433594 1.628907.632813 2.457031.53125 2.261719.949218 4.554688 1.25 6.863282.066406.511718.171875 1.007812.234375 1.519531.285156 2.523437.4375 5.058594.449219 7.601563 0 .347656 0 .683593-.050782 1.03125 0 .738281-.078125 1.492187-.113281 2.238281-.105469 2.230469-.304687 4.433593-.617187 6.613281-.136719 1.023438-.285157 2.039062-.46875 3.0625-.292969 1.554688-.675782 3.066406-1.066407 4.582031-2.144531 8.769531-5.660156 17.140625-10.414062 24.8125-.886719 1.433594-1.957031 2.746094-3.183594 3.902344-4.421875 4.117187-9.21875 7.808594-14.328125 11.03125l-1.128906.738281c-1.257813.78125-2.515625 1.605469-3.78125 2.300782-5.25 2.972656-10.867188 5.246093-16.707032 6.757812l-1.039062.269531c-2.492188.609375-5.011719 1.082031-7.550781 1.414063-.390625.054687-.78125.128906-1.171875.175781-2.589844.308594-5.195313.472656-7.800782.492187v95.457032h17.355469c9.585938 0 17.355469-7.769532 17.355469-17.355469v-9.546875c.003906-7.191406 4.460938-13.625 11.195312-16.15625 2.605469-.988281 5.164063-2.054688 7.679688-3.203125 6.558594-3.003906 14.292969-1.621094 19.402344 3.472656l6.8125 6.785157c6.777344 6.765624 17.75 6.765624 24.523437 0l24.527344-24.523438c6.761719-6.773438 6.761719-17.75 0-24.523438l-6.789063-6.8125c-5.089843-5.109374-6.476562-12.847656-3.46875-19.402343 1.15625-2.519531 2.222657-5.078125 3.199219-7.683594 2.527344-6.75 8.976563-11.222656 16.1875-11.21875h9.542969c9.585938 0 17.359375-7.769531 17.359375-17.355469v-34.710937c-.003906-9.585938-7.773437-17.355469-17.359375-17.355469zm0 0" fill="#ffbb60"/></symbol><symbol id="bill" viewBox="-79 0 511 511.94701"><title>bill</title><path d="m353.578125 17.882812v476.179688c.035156 3.585938-2.101563 6.835938-5.410156 8.226562-3.304688 1.386719-7.125.636719-9.660157-1.898437l-22.828124-23.152344c-1.644532-1.679687-3.890626-2.625-6.238282-2.625-2.351562 0-4.597656.945313-6.242187 2.625l-31.65625 32.085938c-1.644531 1.679687-3.894531 2.621093-6.242188 2.621093-2.347656 0-4.597656-.941406-6.242187-2.621093l-31.652344-32.113281c-1.644531-1.675782-3.894531-2.621094-6.242188-2.621094-2.347656 0-4.597656.945312-6.242187 2.621094l-31.65625 32.113281c-1.640625 1.679687-3.890625 2.621093-6.238281 2.621093-2.351563 0-4.597656-.941406-6.242188-2.621093l-31.65625-32.113281c-1.644531-1.675782-3.894531-2.621094-6.242187-2.621094-2.347657 0-4.597657.945312-6.238281 2.621094l-31.65625 32.113281c-1.644532 1.679687-3.894532 2.621093-6.242188 2.621093s-4.597656-.941406-6.242188-2.621093l-31.65625-32.113281c-1.640624-1.675782-3.890624-2.621094-6.238281-2.621094-2.347656 0-4.597656.945312-6.242187 2.621094l-22.828125 23.152343c-2.53125 2.535157-6.34375 3.285157-9.648438 1.902344-3.304687-1.382813-5.445312-4.621094-5.421875-8.203125v-476.179688c-.035156-3.585937 2.105469-6.835937 5.410156-8.222656 3.304688-1.390625 7.125-.640625 9.660157 1.894532l22.828125 23.15625c1.644531 1.675781 3.894531 2.621093 6.242187 2.621093 2.347657 0 4.597657-.945312 6.238281-2.621093l31.65625-32.089844c1.644532-1.675782 3.894532-2.621094 6.242188-2.621094s4.597656.945312 6.242188 2.621094l31.65625 32.117187c1.640624 1.675781 3.890624 2.621094 6.238281 2.621094 2.347656 0 4.597656-.945313 6.242187-2.621094l31.65625-32.117187c1.644532-1.675782 3.890625-2.621094 6.242188-2.621094 2.347656 0 4.597656.945312 6.238281 2.621094l31.65625 32.117187c1.644531 1.675781 3.894531 2.621094 6.242187 2.621094 2.347657 0 4.597657-.945313 6.242188-2.621094l31.652344-32.117187c1.644531-1.675782 3.894531-2.621094 6.242187-2.621094 2.347657 0 4.597657.945312 6.242188 2.621094l31.65625 32.117187c1.644531 1.675781 3.890625 2.621094 6.242187 2.621094 2.347656 0 4.59375-.945313 6.238282-2.621094l22.828124-23.15625c2.535157-2.53125 6.34375-3.285156 9.648438-1.902343 3.304688 1.382812 5.445312 4.625 5.421875 8.203124zm0 0" fill="#7ed09e"/><g fill="#4c8056"><path d="m53.441406 105.90625c-2.34375-.003906-4.589844-.933594-6.242187-2.589844l-17.65625-17.652344c-3.34375-3.464843-3.296875-8.972656.109375-12.375 3.402344-3.40625 8.910156-3.453124 12.371094-.109374l17.65625 17.65625c2.523437 2.523437 3.28125 6.320312 1.914062 9.617187-1.367188 3.300781-4.585938 5.449219-8.152344 5.453125zm0 0"/><path d="m35.785156 105.90625c-3.570312-.003906-6.789062-2.152344-8.15625-5.453125-1.363281-3.296875-.609375-7.09375 1.914063-9.617187l17.65625-17.65625c3.464843-3.34375 8.96875-3.296876 12.375.109374 3.402343 3.402344 3.453125 8.910157.105469 12.375l-17.65625 17.652344c-1.652344 1.65625-3.898438 2.585938-6.238282 2.589844zm0 0"/><path d="m318.265625 105.90625c-2.339844-.003906-4.585937-.933594-6.238281-2.589844l-17.65625-17.652344c-3.347656-3.464843-3.296875-8.972656.105468-12.375 3.40625-3.40625 8.914063-3.453124 12.375-.109374l17.65625 17.65625c2.523438 2.523437 3.277344 6.320312 1.914063 9.617187-1.367187 3.300781-4.585937 5.449219-8.15625 5.453125zm0 0"/><path d="m300.613281 105.90625c-3.570312-.003906-6.789062-2.152344-8.15625-5.453125-1.363281-3.296875-.609375-7.09375 1.914063-9.617187l17.65625-17.65625c3.460937-3.34375 8.96875-3.296876 12.375.109374 3.402344 3.402344 3.453125 8.910157.105468 12.375l-17.65625 17.652344c-1.652343 1.65625-3.898437 2.585938-6.238281 2.589844zm0 0"/><path d="m88.75 132.386719c-4.875 0-8.828125-3.953125-8.828125-8.828125v-52.964844c0-4.875 3.953125-8.828125 8.828125-8.828125s8.828125 3.953125 8.828125 8.828125v52.964844c0 4.875-3.953125 8.828125-8.828125 8.828125zm0 0"/><path d="m115.234375 114.730469h-26.484375c-4.875 0-8.828125-3.949219-8.828125-8.824219v-35.3125c0-4.875 3.953125-8.828125 8.828125-8.828125h26.484375c9.75 0 17.652344 7.90625 17.652344 17.65625v17.65625c0 9.75-7.902344 17.652344-17.652344 17.652344zm-17.65625-17.652344h17.65625v-17.65625h-17.65625zm0 0"/><path d="m185.851562 132.386719c-4.875 0-8.824218-3.953125-8.824218-8.828125v-44.136719h-17.65625v44.136719c0 4.875-3.953125 8.828125-8.828125 8.828125s-8.828125-3.953125-8.828125-8.828125v-44.136719c0-9.75 7.90625-17.65625 17.65625-17.65625h17.65625c9.75 0 17.652344 7.90625 17.652344 17.65625v44.136719c0 4.875-3.949219 8.828125-8.828126 8.828125zm0 0"/><path d="m185.851562 114.730469h-35.308593c-4.875 0-8.828125-3.949219-8.828125-8.824219 0-4.878906 3.953125-8.828125 8.828125-8.828125h35.308593c4.878907 0 8.828126 3.949219 8.828126 8.828125 0 4.875-3.949219 8.824219-8.828126 8.824219zm0 0"/><path d="m212.335938 132.386719c-4.875 0-8.828126-3.953125-8.828126-8.828125v-52.964844c0-4.875 3.953126-8.828125 8.828126-8.828125s8.828124 3.953125 8.828124 8.828125v52.964844c0 4.875-3.953124 8.828125-8.828124 8.828125zm0 0"/><path d="m256.472656 132.386719h-17.652344c-4.875 0-8.828124-3.953125-8.828124-8.828125v-52.964844c0-4.875 3.953124-8.828125 8.828124-8.828125h17.652344c14.628906 0 26.484375 11.859375 26.484375 26.484375v17.65625c0 14.625-11.855469 26.480469-26.484375 26.480469zm-8.828125-17.65625h8.828125c4.875 0 8.828125-3.949219 8.828125-8.824219v-17.65625c0-4.875-3.953125-8.828125-8.828125-8.828125h-8.828125zm0 0"/></g><path d="m44.613281 158.871094h114.757813c4.875 0 8.828125 3.953125 8.828125 8.828125v17.652343c0 4.875-3.953125 8.828126-8.828125 8.828126h-114.757813c-4.875 0-8.828125-3.953126-8.828125-8.828126v-17.652343c0-4.875 3.953125-8.828125 8.828125-8.828125zm0 0" fill="#bbd1b5"/><path d="m212.335938 158.871094h97.105468c4.875 0 8.824219 3.953125 8.824219 8.828125v17.652343c0 4.875-3.949219 8.828126-8.824219 8.828126h-97.105468c-4.875 0-8.828126-3.953126-8.828126-8.828126v-17.652343c0-4.875 3.953126-8.828125 8.828126-8.828125zm0 0" fill="#bbd1b5"/><path d="m44.613281 229.492188h114.757813c4.875 0 8.828125 3.949218 8.828125 8.824218v17.65625c0 4.875-3.953125 8.828125-8.828125 8.828125h-114.757813c-4.875 0-8.828125-3.953125-8.828125-8.828125v-17.65625c0-4.875 3.953125-8.824218 8.828125-8.824218zm0 0" fill="#bbd1b5"/><path d="m212.335938 229.492188h97.105468c4.875 0 8.824219 3.949218 8.824219 8.824218v17.65625c0 4.875-3.949219 8.828125-8.824219 8.828125h-97.105468c-4.875 0-8.828126-3.953125-8.828126-8.828125v-17.65625c0-4.875 3.953126-8.824218 8.828126-8.824218zm0 0" fill="#bbd1b5"/><path d="m44.613281 300.113281h114.757813c4.875 0 8.828125 3.949219 8.828125 8.824219v17.65625c0 4.875-3.953125 8.828125-8.828125 8.828125h-114.757813c-4.875 0-8.828125-3.953125-8.828125-8.828125v-17.65625c0-4.875 3.953125-8.824219 8.828125-8.824219zm0 0" fill="#bbd1b5"/><path d="m212.335938 300.113281h97.105468c4.875 0 8.824219 3.949219 8.824219 8.824219v17.65625c0 4.875-3.949219 8.828125-8.824219 8.828125h-97.105468c-4.875 0-8.828126-3.953125-8.828126-8.828125v-17.65625c0-4.875 3.953126-8.824219 8.828126-8.824219zm0 0" fill="#bbd1b5"/><path d="m141.714844 370.730469h167.726562c4.875 0 8.824219 3.953125 8.824219 8.828125v44.140625c0 4.875-3.949219 8.824219-8.824219 8.824219h-167.726562c-4.875 0-8.828125-3.949219-8.828125-8.824219v-44.140625c0-4.875 3.953125-8.828125 8.828125-8.828125zm0 0" fill="#f5efca"/></symbol><symbol id="coins" viewBox="0 0 58 58"><title>coins</title><path id="XMLID_148_" style="fill:#E4AF18;" d="M29,48c-14.359,0-26-2.962-26-6v6.996C3.008,52.032,14.645,55,29,55 s25.992-2.968,26-6.004V42C55,45.038,43.359,48,29,48"/><path id="XMLID_147_" style="fill:#F4BF1A;" d="M26,37c-14.359,0-26-2.962-26-6v6.996C0.008,41.032,11.645,44,26,44 s25.992-2.968,26-6.004V31C52,34.038,40.359,37,26,37"/><path id="XMLID_146_" style="fill:#E4AF18;" d="M32,26c-14.359,0-26-2.962-26-6v6.996C6.008,30.032,17.645,33,32,33 s25.992-2.968,26-6.004V20C58,23.038,46.359,26,32,26"/><path id="XMLID_145_" style="fill:#FFD949;" d="M52,8.13C52,11.167,40.359,14,26,14C11.641,14,0,11.167,0,8.13 C0,5.092,11.641,3,26,3C40.359,3,52,5.092,52,8.13"/><path id="XMLID_144_" style="fill:#F4BF1A;" d="M26,14C11.641,14,0,11.038,0,8v6.996C0.008,18.032,11.645,21,26,21 s25.992-2.968,26-6.004V8C52,11.038,40.359,14,26,14"/><path id="XMLID_143_" style="fill:#DCA815;" d="M4,11.074v6.995c0.608,0.224,1.274,0.44,2,0.646v-6.996 C5.274,11.513,4.608,11.297,4,11.074"/><path id="XMLID_142_" style="fill:#DCA815;" d="M46,11.719v6.996c0.726-0.206,1.392-0.422,2-0.646v-6.995 C47.392,11.298,46.726,11.513,46,11.719"/><path id="XMLID_141_" style="fill:#DCA815;" d="M9,12.445v6.997c0.64,0.133,1.307,0.259,2,0.378v-6.997 C10.307,12.704,9.64,12.578,9,12.445"/><path id="XMLID_140_" style="fill:#DCA815;" d="M41,12.823v6.998c0.693-0.12,1.36-0.246,2-0.379v-6.997 C42.36,12.578,41.693,12.704,41,12.823"/><path id="XMLID_139_" style="fill:#DCA815;" d="M14,13.269v6.998c0.652,0.084,1.317,0.162,2,0.232v-6.998 C15.317,13.431,14.652,13.352,14,13.269"/><path id="XMLID_138_" style="fill:#DCA815;" d="M36,13.502V20.5c0.683-0.071,1.348-0.149,2-0.232v-6.999 C37.348,13.354,36.683,13.432,36,13.502"/><path id="XMLID_137_" style="fill:#DCA815;" d="M19,13.759v6.999c0.657,0.046,1.323,0.087,2,0.12v-7 C20.323,13.845,19.657,13.805,19,13.759"/><path id="XMLID_136_" style="fill:#DCA815;" d="M31,13.878v7c0.677-0.033,1.343-0.074,2-0.12v-6.999 C32.343,13.805,31.677,13.845,31,13.878"/><path id="XMLID_135_" style="fill:#DCA815;" d="M26,14c-0.335,0-0.668-0.003-1-0.006v7C25.332,20.997,25.665,21,26,21 s0.668-0.003,1-0.006v-7C26.668,13.997,26.335,14,26,14"/><path id="XMLID_134_" style="fill:#C49214;" d="M10,23.074v6.995c0.608,0.224,1.274,0.44,2,0.646v-6.996 C11.274,23.513,10.608,23.297,10,23.074"/><path id="XMLID_133_" style="fill:#C49214;" d="M52,23.719v6.996c0.726-0.206,1.392-0.422,2-0.646v-6.995 C53.392,23.298,52.726,23.513,52,23.719"/><path id="XMLID_132_" style="fill:#C49214;" d="M15,24.445v6.997c0.64,0.133,1.307,0.259,2,0.378v-6.997 C16.307,24.704,15.64,24.578,15,24.445"/><path id="XMLID_131_" style="fill:#C49214;" d="M47,24.823v6.998c0.693-0.12,1.36-0.246,2-0.379v-6.997 C48.36,24.578,47.693,24.704,47,24.823"/><path id="XMLID_130_" style="fill:#C49214;" d="M20,25.27v6.998c0.652,0.084,1.317,0.162,2,0.232v-6.998 C21.317,25.431,20.652,25.353,20,25.27"/><path id="XMLID_129_" style="fill:#C49214;" d="M42,25.501V32.5c0.683-0.071,1.348-0.149,2-0.232V25.27 C43.348,25.354,42.683,25.432,42,25.501"/><path id="XMLID_128_" style="fill:#C49214;" d="M25,25.759v6.999c0.657,0.046,1.323,0.087,2,0.12v-7 C26.323,25.845,25.657,25.805,25,25.759"/><path id="XMLID_127_" style="fill:#C49214;" d="M37,25.878v7c0.677-0.033,1.343-0.074,2-0.12v-6.999 C38.343,25.805,37.677,25.845,37,25.878"/><path id="XMLID_126_" style="fill:#C49214;" d="M32,26c-0.335,0-0.668-0.003-1-0.006v7C31.332,32.997,31.665,33,32,33 s0.668-0.003,1-0.006v-7C32.668,25.997,32.335,26,32,26"/><path id="XMLID_125_" style="fill:#DCA815;" d="M4,34.074v6.995c0.608,0.224,1.274,0.439,2,0.646v-6.996 C5.274,34.513,4.608,34.297,4,34.074"/><path id="XMLID_124_" style="fill:#DCA815;" d="M46,34.719v6.996c0.726-0.206,1.392-0.422,2-0.646v-6.995 C47.392,34.298,46.726,34.513,46,34.719"/><path id="XMLID_123_" style="fill:#DCA815;" d="M9,35.445v6.997c0.64,0.133,1.307,0.259,2,0.378v-6.997 C10.307,35.704,9.64,35.578,9,35.445"/><path id="XMLID_122_" style="fill:#DCA815;" d="M41,35.823v6.998c0.693-0.12,1.36-0.246,2-0.379v-6.997 C42.36,35.578,41.693,35.704,41,35.823"/><path id="XMLID_121_" style="fill:#DCA815;" d="M14,36.27v6.998c0.652,0.084,1.317,0.162,2,0.232v-6.998 C15.317,36.431,14.652,36.353,14,36.27"/><path id="XMLID_120_" style="fill:#DCA815;" d="M36,36.501V43.5c0.683-0.071,1.348-0.149,2-0.232V36.27 C37.348,36.354,36.683,36.432,36,36.501"/><path id="XMLID_119_" style="fill:#DCA815;" d="M19,36.759v6.999c0.657,0.046,1.323,0.087,2,0.12v-7 C20.323,36.845,19.657,36.805,19,36.759"/><path id="XMLID_118_" style="fill:#DCA815;" d="M31,36.878v7c0.677-0.033,1.343-0.074,2-0.12v-6.999 C32.343,36.805,31.677,36.845,31,36.878"/><path id="XMLID_117_" style="fill:#DCA815;" d="M26,37c-0.335,0-0.668-0.003-1-0.006v7C25.332,43.997,25.665,44,26,44 s0.668-0.003,1-0.006v-7C26.668,36.997,26.335,37,26,37"/><path id="XMLID_116_" style="fill:#C49214;" d="M7,45.074v6.995c0.608,0.224,1.274,0.439,2,0.646v-6.996 C8.274,45.513,7.608,45.297,7,45.074"/><path id="XMLID_115_" style="fill:#C49214;" d="M49,45.719v6.996c0.726-0.206,1.392-0.422,2-0.646v-6.995 C50.392,45.298,49.726,45.513,49,45.719"/><path id="XMLID_114_" style="fill:#C49214;" d="M12,46.445v6.997c0.64,0.133,1.307,0.259,2,0.378v-6.997 C13.307,46.704,12.64,46.578,12,46.445"/><path id="XMLID_113_" style="fill:#C49214;" d="M44,46.823v6.998c0.693-0.12,1.36-0.246,2-0.379v-6.997 C45.36,46.578,44.693,46.704,44,46.823"/><path id="XMLID_112_" style="fill:#C49214;" d="M17,47.27v6.998c0.652,0.084,1.317,0.162,2,0.232v-6.998 C18.317,47.431,17.652,47.353,17,47.27"/><path id="XMLID_111_" style="fill:#C49214;" d="M39,47.501V54.5c0.683-0.071,1.348-0.149,2-0.232V47.27 C40.348,47.354,39.683,47.432,39,47.501"/><path id="XMLID_110_" style="fill:#C49214;" d="M22,47.759v6.999c0.657,0.046,1.323,0.087,2,0.12v-7 C23.323,47.845,22.657,47.805,22,47.759"/><path id="XMLID_109_" style="fill:#C49214;" d="M34,47.878v7c0.677-0.033,1.343-0.074,2-0.12v-6.999 C35.343,47.805,34.677,47.845,34,47.878"/><path id="XMLID_108_" style="fill:#C49214;" d="M29,48c-0.335,0-0.668-0.003-1-0.006v7C28.332,54.997,28.665,55,29,55 s0.668-0.003,1-0.006v-7C29.668,47.997,29.335,48,29,48"/><path id="XMLID_107_" style="fill:#FCC62D;" d="M51.212,39.372C48.372,41.87,38.163,44,26,44c-9.51,0-17.823-1.303-22.356-3.065 C3.227,41.313,3,41.713,3,42.13C3,45.168,14.641,48,29,48c14.36,0,26-2.832,26-5.87C55,41.083,53.615,40.147,51.212,39.372"/><path id="XMLID_106_" style="fill:#FFD949;" d="M32,33c-13.213,0-24.116-2.515-25.774-5.283C2.347,28.596,0,29.767,0,31.13 C0,34.167,11.641,37,26,37c14.359,0,26-2.833,26-5.87c0-0.134-0.03-0.265-0.075-0.395C47.156,32.077,40.002,33,32,33"/><path id="XMLID_105_" style="fill:#FCC62D;" d="M50.993,16.549C47.882,18.969,37.874,21,26,21c-7.668,0-14.559-0.848-19.318-2.1 C6.241,19.29,6,19.7,6,20.13C6,23.168,17.641,26,32,26c14.359,0,26-2.832,26-5.87C58,18.678,55.337,17.443,50.993,16.549"/></symbol><symbol id="dollar" viewBox="0 0 512 512"><title>dollar</title><path style="fill:#FEDB41;" d="M257,0C116.302,0,0,114.3,0,255s116.302,257,257,257s255-116.3,255-257S397.698,0,257,0z"/><path style="fill:#FFCC33;" d="M512,255c0,140.7-114.302,257-255,257V0C397.698,0,512,114.3,512,255z"/><path style="fill:#FEA832;" d="M257,60C149.598,60,60,147.599,60,255s89.598,197,197,197s195-89.599,195-197S364.402,60,257,60z"/><path style="fill:#FE9923;" d="M452,255c0,107.401-87.598,197-195,197V60C364.402,60,452,147.599,452,255z"/><path style="fill:#FEDB41;" d="M287,240h-15v-60h15c8.401,0,15,6.599,15,15c0,19.799,30,19.799,30,0c0-24.901-20.098-45-45-45h-15 v-15c0-9.901-7.5-15-15-15s-15,5.099-15,15v15h-17c-24.902,0-45,20.099-45,45v30c0,24.901,20.098,45,45,45h17v62h-17 c-8.401,0-15-6.599-15-15c0-19.799-30-19.799-30,0c0,24.901,20.098,45,45,45h17v15c0,9.901,7.5,15,15,15s15-5.099,15-15v-15h15 c24.902,0,45-20.099,45-45v-32C332,260.099,311.902,240,287,240z M242,240h-17c-8.401,0-15-6.599-15-15v-30c0-8.401,6.599-15,15-15 h17V240z M302,317c0,8.401-6.599,15-15,15h-15v-62h15c8.401,0,15,6.599,15,15V317z"/><path style="fill:#FFCC33;" d="M287,240h-15v-60h15c8.401,0,15,6.599,15,15c0,19.799,30,19.799,30,0c0-24.901-20.098-45-45-45h-15 v-15c0-9.901-7.5-15-15-15v272c7.5,0,15-5.099,15-15v-15h15c24.902,0,45-20.099,45-45v-32C332,260.099,311.902,240,287,240z M302,317c0,8.401-6.599,15-15,15h-15v-62h15c8.401,0,15,6.599,15,15V317z"/></symbol><symbol id="euro" viewBox="-44 0 464 464"><title>euro</title><path d="M 280 136 C 276.765625 136 273.847656 134.050781 272.609375 131.0625 C 271.371094 128.074219 272.058594 124.632812 274.34375 122.34375 L 342.34375 54.34375 C 345.484375 51.3125 350.472656 51.355469 353.558594 54.441406 C 356.644531 57.527344 356.6875 62.515625 353.65625 65.65625 L 303.769531 115.542969 L 366.566406 104.128906 C 370.914062 103.335938 375.082031 106.21875 375.871094 110.566406 C 376.664062 114.914062 373.78125 119.082031 369.433594 119.871094 L 281.433594 135.871094 C 280.960938 135.957031 280.480469 136 280 136 Z M 280 136 " style=" stroke:none;fill-rule:nonzero;fill:rgb(100%,65.490196%,20%);fill-opacity:1;"/><path d="M 0 333.800781 L 0 336 C 0 406.691406 57.308594 464 128 464 L 240 464 C 310.691406 464 368 406.691406 368 336 L 368 333.800781 C 368 309.125 360.867188 284.980469 347.464844 264.265625 L 280 160 L 88 160 L 20.535156 264.265625 C 7.132812 284.980469 0 309.125 0 333.800781 Z M 128 288 L 152 288 L 152 264 C 152 246.328125 166.328125 232 184 232 C 166.328125 232 152 246.328125 152 264 L 152 360 C 152 377.671875 166.328125 392 184 392 C 166.328125 392 152 377.671875 152 360 L 152 288 Z M 128 288 " style=" stroke:none;fill-rule:nonzero;fill:rgb(36.862745%,67.45098%,14.117647%);fill-opacity:1;"/><path d="M 296 144 C 296 135.164062 288.835938 128 280 128 L 88 128 C 79.164062 128 72 135.164062 72 144 C 72 152.835938 79.164062 160 88 160 L 280 160 C 288.835938 160 296 152.835938 296 144 Z M 296 144 " style=" stroke:none;fill-rule:nonzero;fill:rgb(66.27451%,48.627451%,31.372549%);fill-opacity:1;"/><path d="M 302 8 L 272 16 L 248.160156 0 L 215.71875 16 L 184 0 L 151.847656 16 L 120.039062 0 L 96.542969 16 L 66.496094 8 L 104 128 L 272 128 Z M 302 8 " style=" stroke:none;fill-rule:nonzero;fill:rgb(30.588235%,56.470588%,11.764706%);fill-opacity:1;"/><path d="M 232 400 L 184 400 C 161.917969 399.972656 144.027344 382.082031 144 360 L 144 264 C 144.027344 241.917969 161.917969 224.027344 184 224 L 232 224 L 232 240 L 184 240 C 170.746094 240 160 250.746094 160 264 L 160 360 C 160 373.253906 170.746094 384 184 384 L 232 384 Z M 232 400 " style=" stroke:none;fill-rule:nonzero;fill:rgb(94.509804%,94.901961%,94.901961%);fill-opacity:1;"/><path d="M 120 312 L 208 312 L 208 328 L 120 328 Z M 120 312 " style=" stroke:none;fill-rule:nonzero;fill:rgb(94.509804%,94.901961%,94.901961%);fill-opacity:1;"/><path d="M 128 280 L 216 280 L 216 296 L 128 296 Z M 128 280 " style=" stroke:none;fill-rule:nonzero;fill:rgb(94.509804%,94.901961%,94.901961%);fill-opacity:1;"/></symbol><symbol id="delete" viewBox="0 0 512.002 512.002"><title>delete</title><path style="fill:#57575C;" d="M395.636,93.092h-46.545h-23.273V23.274c0-12.853-10.42-23.273-23.273-23.273h-93.091h-93.091 c-12.853,0-23.273,10.42-23.273,23.273v69.818H69.818H23.273C10.42,93.092,0,103.512,0,116.364s10.42,23.273,23.273,23.273h23.273 v287.03c0,12.853,10.42,23.273,23.273,23.273h139.636v-17.02V265.279v-0.017V139.637H256h46.545h23.273h46.545h23.273 c12.853,0,23.273-10.42,23.273-23.273S408.489,93.092,395.636,93.092z M279.273,93.092h-69.818h-69.818V46.546h69.818h69.818V93.092 z"/><path style="fill:#A9A8AE;" d="M395.636,93.092h-46.545h-23.273V23.274c0-12.853-10.42-23.273-23.273-23.273h-93.091h-93.091 c-12.853,0-23.273,10.42-23.273,23.273v69.818H69.818H23.273C10.42,93.092,0,103.512,0,116.364s10.42,23.273,23.273,23.273h23.273 v287.03c0,12.853,10.42,23.273,23.273,23.273h139.636v-17.02V265.279c3.897-6.468,8.229-12.646,12.958-18.491 c0.064-0.076,0.126-0.152,0.188-0.228c0.729-0.897,1.466-1.787,2.214-2.669c0.107-0.127,0.219-0.253,0.326-0.382 c0.709-0.83,1.424-1.652,2.149-2.468c0.135-0.15,0.27-0.301,0.405-0.451c0.707-0.791,1.423-1.576,2.147-2.354 c0.147-0.158,0.293-0.315,0.441-0.472c0.72-0.768,1.449-1.53,2.183-2.284c0.088-0.092,0.175-0.185,0.264-0.276 c0.048-0.05,0.099-0.098,0.149-0.147c2.256-2.298,4.579-4.526,6.965-6.689c0.278-0.251,0.555-0.503,0.835-0.752 c1.033-0.922,2.076-1.834,3.131-2.731c0.205-0.174,0.406-0.348,0.613-0.52c1.058-0.889,2.13-1.761,3.209-2.624 c0.199-0.158,0.389-0.323,0.588-0.479c0.245-0.194,0.498-0.379,0.745-0.571c0.798-0.622,1.598-1.237,2.406-1.845 c0.316-0.237,0.628-0.478,0.945-0.712c1.178-0.872,2.366-1.728,3.568-2.569c0.04-0.029,0.081-0.059,0.119-0.087 c0.068-0.048,0.14-0.092,0.209-0.14c1.767-1.23,3.555-2.43,5.37-3.592c0.012-0.006,0.023-0.014,0.034-0.022 c1.789-1.143,3.607-2.251,5.444-3.326c0.13-0.076,0.258-0.155,0.388-0.23c1.733-1.008,3.491-1.978,5.264-2.925 c0.27-0.144,0.537-0.292,0.807-0.433c1.694-0.891,3.406-1.747,5.134-2.579c0.211-0.101,0.414-0.213,0.624-0.313 c0.163-0.078,0.332-0.147,0.495-0.225c1.482-0.7,2.974-1.376,4.481-2.032c0.424-0.185,0.85-0.363,1.275-0.545 c1.462-0.622,2.932-1.229,4.416-1.808c0.264-0.104,0.527-0.206,0.793-0.307c1.505-0.58,3.022-1.131,4.549-1.666 c0.417-0.146,0.83-0.295,1.247-0.436c1.59-0.545,3.195-1.063,4.807-1.559c0.397-0.121,0.797-0.239,1.196-0.357 c1.648-0.492,3.303-0.967,4.971-1.407c0.121-0.033,0.242-0.065,0.363-0.096c1.704-0.445,3.416-0.855,5.14-1.246 c0.357-0.082,0.717-0.164,1.077-0.244c1.722-0.38,3.457-0.731,5.199-1.055c0.346-0.064,0.692-0.124,1.039-0.186 c1.825-0.327,3.654-0.633,5.5-0.898c7.602-1.092,15.371-1.669,23.273-1.669s15.67,0.577,23.273,1.669v-48.215h23.273 c12.853,0,23.273-10.42,23.273-23.273C418.909,103.512,408.489,93.092,395.636,93.092z M139.636,93.092V46.546h69.818h69.818v46.545 h-69.818H139.636z"/><path style="fill:#D8143A;" d="M372.364,187.852c-7.602-1.092-15.371-1.669-23.273-1.669c-7.902,0-15.67,0.577-23.273,1.669 c-1.845,0.265-3.676,0.571-5.5,0.898c-0.348,0.062-0.694,0.123-1.04,0.186c-1.742,0.324-3.475,0.675-5.199,1.055 c-0.36,0.079-0.72,0.161-1.077,0.244c-1.722,0.391-3.437,0.802-5.14,1.246c-0.121,0.031-0.242,0.064-0.363,0.096 c-1.668,0.441-3.325,0.915-4.971,1.407c-0.399,0.119-0.799,0.236-1.196,0.357c-1.612,0.495-3.215,1.015-4.807,1.559 c-0.417,0.143-0.83,0.292-1.247,0.436c-1.525,0.535-3.044,1.088-4.549,1.666c-0.265,0.101-0.529,0.205-0.793,0.307 c-1.483,0.58-2.953,1.187-4.416,1.808c-0.425,0.182-0.852,0.36-1.275,0.545c-1.507,0.656-2.999,1.333-4.481,2.032 c-0.163,0.078-0.332,0.147-0.495,0.225c-0.211,0.101-0.414,0.213-0.624,0.313c-1.727,0.832-3.44,1.688-5.134,2.579 c-0.27,0.143-0.537,0.289-0.807,0.433c-1.773,0.945-3.53,1.916-5.264,2.925c-0.13,0.076-0.258,0.155-0.388,0.23 c-1.837,1.075-3.654,2.181-5.444,3.326c-0.012,0.006-0.023,0.014-0.034,0.022c-1.815,1.162-3.603,2.361-5.37,3.592 c-0.07,0.048-0.141,0.092-0.209,0.14c-0.039,0.028-0.079,0.057-0.119,0.087c-1.201,0.841-2.391,1.697-3.568,2.569 c-0.316,0.234-0.628,0.475-0.945,0.712c-0.808,0.608-1.609,1.223-2.406,1.845c-0.247,0.192-0.5,0.377-0.745,0.571 c-0.199,0.157-0.389,0.323-0.588,0.479c-1.078,0.863-2.152,1.736-3.209,2.624c-0.206,0.172-0.408,0.346-0.613,0.52 c-1.055,0.897-2.098,1.809-3.131,2.731c-0.279,0.25-0.557,0.501-0.835,0.752c-2.386,2.163-4.709,4.391-6.965,6.689 c-0.048,0.05-0.099,0.098-0.149,0.147c-0.088,0.092-0.175,0.185-0.264,0.276c-0.735,0.754-1.463,1.516-2.183,2.284 c-0.147,0.157-0.293,0.315-0.441,0.472c-0.725,0.777-1.44,1.562-2.147,2.354c-0.135,0.15-0.27,0.301-0.405,0.451 c-0.725,0.816-1.44,1.638-2.149,2.468c-0.107,0.127-0.219,0.254-0.326,0.382c-0.746,0.881-1.485,1.772-2.214,2.669 c-0.062,0.076-0.124,0.152-0.188,0.228c-4.729,5.845-9.061,12.023-12.958,18.491c-0.079,0.132-0.163,0.261-0.242,0.393 c-0.043,0.074-0.088,0.151-0.132,0.225c-0.597,1.001-1.184,2.009-1.761,3.024c-0.096,0.169-0.191,0.341-0.287,0.512 c-0.521,0.925-1.033,1.853-1.536,2.788c-0.121,0.227-0.24,0.453-0.362,0.681c-0.47,0.884-0.934,1.773-1.387,2.669 c-0.135,0.264-0.267,0.528-0.4,0.793c-0.434,0.867-0.861,1.739-1.282,2.614c-0.135,0.284-0.272,0.568-0.406,0.853 c-0.41,0.867-0.808,1.739-1.202,2.614c-0.132,0.292-0.264,0.583-0.394,0.875c-0.391,0.884-0.774,1.775-1.151,2.667 c-0.118,0.282-0.239,0.565-0.357,0.847c-0.383,0.926-0.757,1.857-1.125,2.791c-0.099,0.253-0.203,0.504-0.299,0.757 c-0.397,1.022-0.782,2.05-1.157,3.081c-0.061,0.164-0.123,0.327-0.182,0.492c-1.314,3.641-2.501,7.34-3.558,11.095 c-0.064,0.228-0.124,0.459-0.188,0.689c-0.275,0.996-0.545,1.994-0.801,2.996c-0.098,0.379-0.188,0.76-0.282,1.139 c-0.213,0.861-0.424,1.722-0.624,2.589c-0.102,0.445-0.199,0.892-0.296,1.339c-0.178,0.804-0.355,1.609-0.521,2.419 c-0.099,0.487-0.195,0.977-0.292,1.466c-0.152,0.774-0.299,1.548-0.441,2.326c-0.093,0.515-0.183,1.032-0.272,1.548 c-0.13,0.757-0.254,1.517-0.372,2.278c-0.084,0.532-0.163,1.067-0.242,1.601c-0.109,0.751-0.214,1.505-0.312,2.259 c-0.073,0.545-0.144,1.089-0.211,1.635c-0.092,0.756-0.174,1.514-0.256,2.271c-0.059,0.545-0.118,1.089-0.171,1.635 c-0.074,0.771-0.141,1.547-0.205,2.323c-0.043,0.537-0.092,1.072-0.13,1.609c-0.057,0.807-0.105,1.615-0.152,2.425 c-0.031,0.509-0.064,1.016-0.09,1.525c-0.043,0.897-0.071,1.795-0.101,2.695c-0.012,0.425-0.033,0.85-0.043,1.275 c-0.026,1.331-0.045,2.662-0.045,3.998c0,19.034,3.291,37.309,9.318,54.303c2.861,8.065,6.327,15.846,10.367,23.273 c1.15,2.113,2.349,4.197,3.589,6.253c3.573,5.928,7.509,11.613,11.785,17.02c29.86,37.775,76.072,62.061,127.851,62.061 c89.828,0,162.909-73.081,162.909-162.909C512,267.164,451.205,199.18,372.364,187.852z"/><path style="fill:#77757F;" d="M205.867,426.667c-4.04-7.427-7.506-15.208-10.367-23.273c-6.028-16.994-9.318-35.269-9.318-54.303 c0-1.336,0.019-2.667,0.05-3.997c0.011-0.425,0.031-0.85,0.043-1.275c0.031-0.9,0.057-1.798,0.101-2.695 c0.026-0.51,0.059-1.018,0.09-1.525c0.045-0.81,0.095-1.618,0.152-2.425c0.039-0.538,0.087-1.074,0.13-1.61 c0.064-0.776,0.13-1.55,0.205-2.323c0.053-0.546,0.112-1.091,0.171-1.635c0.082-0.759,0.164-1.516,0.256-2.271 c0.067-0.546,0.138-1.091,0.211-1.635c0.098-0.754,0.203-1.508,0.312-2.259c0.079-0.535,0.16-1.069,0.242-1.601 c0.118-0.762,0.242-1.52,0.372-2.278c0.088-0.517,0.178-1.033,0.272-1.548c0.141-0.777,0.29-1.552,0.441-2.326 c0.096-0.489,0.191-0.979,0.292-1.466c0.168-0.808,0.343-1.614,0.521-2.419c0.099-0.447,0.194-0.894,0.296-1.339 c0.2-0.866,0.413-1.728,0.624-2.589c0.095-0.38,0.185-0.76,0.282-1.139c0.256-1.002,0.526-2.001,0.801-2.996 c0.064-0.23,0.124-0.461,0.188-0.689c1.057-3.755,2.242-7.455,3.558-11.095c0.059-0.164,0.121-0.327,0.182-0.492 c0.375-1.032,0.76-2.059,1.157-3.081c0.098-0.253,0.2-0.504,0.299-0.757c0.366-0.934,0.742-1.865,1.125-2.791 c0.118-0.284,0.239-0.565,0.357-0.847c0.377-0.892,0.76-1.781,1.151-2.667c0.13-0.293,0.262-0.583,0.394-0.875 c0.394-0.875,0.794-1.747,1.202-2.614c0.135-0.285,0.272-0.569,0.406-0.853c0.42-0.875,0.847-1.747,1.282-2.614 c0.133-0.264,0.265-0.529,0.4-0.793c0.453-0.895,0.917-1.783,1.387-2.669c0.121-0.227,0.24-0.455,0.362-0.681 c0.503-0.936,1.015-1.865,1.536-2.788c0.096-0.171,0.191-0.341,0.285-0.512c0.577-1.015,1.164-2.023,1.761-3.024 c0.043-0.074,0.088-0.151,0.132-0.225c0.079-0.132,0.163-0.262,0.242-0.393v-0.017V139.637h46.545h46.545h23.273h46.545h23.273 c12.853,0,23.273-10.42,23.273-23.273s-10.42-23.273-23.273-23.273h-46.545h-23.273V23.274c0-12.853-10.42-23.273-23.273-23.273 H116.364c-12.853,0-23.273,10.42-23.273,23.273v69.818H69.818H23.273C10.42,93.092,0,103.512,0,116.364s10.42,23.273,23.273,23.273 h23.273v287.03c0,12.853,10.42,23.273,23.273,23.273h139.636v-17.02C208.215,430.864,207.017,428.781,205.867,426.667z M139.636,46.546h139.636v46.545H139.636V46.546z"/><path style="fill:#A9A8AE;" d="M209.455,449.94h11.785c-4.276-5.407-8.212-11.092-11.785-17.02V449.94z"/><path style="fill:#B4002B;" d="M195.79,293.954c-1.316,3.64-2.501,7.34-3.558,11.095 C193.289,301.294,194.478,297.595,195.79,293.954z"/><path style="fill:#87868D;" d="M209.081,265.896c-0.597,1.001-1.184,2.009-1.761,3.024c-0.096,0.169-0.191,0.341-0.287,0.512 c-0.521,0.925-1.033,1.853-1.536,2.788c-0.121,0.227-0.24,0.453-0.361,0.681c-0.47,0.884-0.934,1.773-1.387,2.669 c-0.135,0.264-0.267,0.528-0.4,0.793c-0.434,0.867-0.861,1.739-1.282,2.614c-0.135,0.284-0.272,0.568-0.406,0.853 c-0.41,0.867-0.808,1.739-1.202,2.614c-0.132,0.292-0.264,0.583-0.394,0.875c-0.391,0.884-0.774,1.775-1.151,2.667 c-0.118,0.282-0.239,0.565-0.357,0.847c-0.383,0.926-0.757,1.857-1.125,2.791c-0.099,0.253-0.203,0.504-0.299,0.757 c-0.397,1.022-0.782,2.05-1.157,3.081c-0.061,0.164-0.123,0.327-0.182,0.492c-1.316,3.64-2.501,7.34-3.558,11.095 c-0.064,0.228-0.124,0.459-0.188,0.689c-0.275,0.996-0.545,1.994-0.801,2.996c-0.098,0.379-0.188,0.76-0.282,1.139 c-0.213,0.861-0.424,1.722-0.624,2.589c-0.102,0.445-0.199,0.892-0.296,1.339c-0.178,0.804-0.355,1.609-0.521,2.419 c-0.099,0.487-0.195,0.977-0.292,1.466c-0.152,0.774-0.299,1.548-0.441,2.326c-0.093,0.515-0.183,1.032-0.272,1.548 c-0.13,0.757-0.254,1.517-0.372,2.278c-0.084,0.532-0.163,1.067-0.242,1.601c-0.109,0.751-0.214,1.505-0.312,2.259 c-0.073,0.545-0.144,1.089-0.211,1.635c-0.092,0.756-0.174,1.514-0.256,2.271c-0.059,0.545-0.118,1.089-0.171,1.635 c-0.074,0.771-0.141,1.547-0.205,2.323c-0.043,0.537-0.092,1.072-0.13,1.609c-0.057,0.807-0.105,1.615-0.152,2.425 c-0.031,0.509-0.064,1.016-0.09,1.525c-0.043,0.897-0.071,1.795-0.101,2.695c-0.012,0.425-0.033,0.85-0.043,1.275 c-0.033,1.331-0.051,2.662-0.051,3.998c0,19.034,3.291,37.309,9.318,54.303c2.861,8.065,6.327,15.846,10.367,23.273 c1.15,2.113,2.349,4.197,3.589,6.253V265.279c-0.079,0.132-0.163,0.261-0.242,0.393 C209.168,265.747,209.124,265.822,209.081,265.896z"/><path style="fill:#57575C;" d="M139.636,93.092V46.546h69.818V0.001h-93.091c-12.853,0-23.273,10.42-23.273,23.273v69.818H69.818 H23.273C10.42,93.092,0,103.512,0,116.364s10.42,23.273,23.273,23.273h23.273v287.03c0,12.853,10.42,23.273,23.273,23.273h139.636 v-17.02c-1.24-2.056-2.437-4.139-3.589-6.253c-4.04-7.427-7.506-15.208-10.367-23.273c-6.028-16.994-9.318-35.269-9.318-54.303 c0-1.336,0.019-2.667,0.05-3.997c0.011-0.425,0.033-0.85,0.043-1.275c0.031-0.9,0.057-1.798,0.101-2.695 c0.026-0.51,0.059-1.018,0.09-1.525c0.045-0.81,0.095-1.618,0.152-2.425c0.039-0.538,0.087-1.074,0.13-1.609 c0.064-0.776,0.13-1.55,0.205-2.323c0.053-0.546,0.112-1.091,0.171-1.635c0.082-0.759,0.164-1.516,0.256-2.271 c0.067-0.546,0.138-1.091,0.211-1.635c0.098-0.754,0.203-1.508,0.312-2.259c0.079-0.535,0.16-1.069,0.242-1.601 c0.118-0.762,0.242-1.52,0.372-2.278c0.088-0.517,0.178-1.033,0.272-1.548c0.141-0.777,0.29-1.552,0.441-2.326 c0.096-0.489,0.191-0.979,0.292-1.466c0.166-0.808,0.343-1.614,0.521-2.419c0.098-0.447,0.194-0.894,0.296-1.339 c0.2-0.866,0.413-1.728,0.624-2.589c0.095-0.38,0.185-0.76,0.282-1.139c0.256-1.002,0.526-2.001,0.801-2.996 c0.064-0.23,0.124-0.461,0.188-0.689c1.057-3.755,2.242-7.455,3.558-11.095c0.059-0.164,0.121-0.327,0.182-0.492 c0.375-1.032,0.76-2.059,1.157-3.081c0.098-0.253,0.2-0.504,0.299-0.757c0.366-0.934,0.742-1.865,1.125-2.791 c0.118-0.284,0.239-0.565,0.357-0.847c0.377-0.892,0.76-1.781,1.151-2.667c0.13-0.292,0.262-0.583,0.394-0.875 c0.394-0.875,0.794-1.747,1.202-2.614c0.135-0.285,0.272-0.569,0.406-0.853c0.42-0.877,0.847-1.747,1.282-2.614 c0.133-0.264,0.265-0.529,0.4-0.793c0.453-0.895,0.917-1.783,1.387-2.669c0.121-0.227,0.24-0.455,0.361-0.681 c0.503-0.936,1.015-1.865,1.536-2.788c0.096-0.171,0.191-0.341,0.287-0.512c0.577-1.015,1.164-2.023,1.761-3.024 c0.043-0.074,0.088-0.15,0.132-0.225c0.079-0.132,0.163-0.262,0.242-0.393v-0.017V139.637V93.092H139.636z"/><path style="fill:#460016;" d="M299.723,299.724c-9.089,9.089-9.089,23.823,0,32.912l16.455,16.455l-16.455,16.455 c-9.089,9.089-9.089,23.824,0,32.912c4.544,4.544,10.501,6.817,16.455,6.817c5.956,0,11.913-2.271,16.457-6.817l16.455-16.455 l16.455,16.455c2.029,2.029,4.35,3.581,6.817,4.703c3.058,1.392,6.343,2.113,9.64,2.113c5.956,0,11.913-2.271,16.455-6.817 c9.089-9.089,9.089-23.823,0-32.912l-16.455-16.454l16.455-16.455c9.089-9.089,9.089-23.823,0-32.912 c-7.059-7.059-17.515-8.609-26.095-4.703c-2.467,1.123-4.788,2.673-6.817,4.703l-16.455,16.455l-16.455-16.455 C323.547,290.635,308.81,290.635,299.723,299.724z"/><path style="fill:#B4002B;" d="M349.091,382.004l-16.455,16.455c-4.544,4.544-10.501,6.817-16.457,6.817 c-5.956,0-11.913-2.271-16.455-6.817c-9.089-9.089-9.089-23.824,0-32.912l16.455-16.455l-16.455-16.455 c-9.089-9.089-9.089-23.823,0-32.912c9.087-9.089,23.824-9.089,32.912,0l16.455,16.455V186.183c-7.902,0-15.67,0.577-23.273,1.669 c-1.845,0.265-3.676,0.571-5.5,0.898c-0.348,0.062-0.694,0.123-1.04,0.186c-1.742,0.324-3.475,0.675-5.199,1.055 c-0.36,0.079-0.72,0.161-1.077,0.244c-1.722,0.391-3.437,0.802-5.14,1.246c-0.121,0.033-0.242,0.065-0.363,0.096 c-1.668,0.441-3.325,0.915-4.971,1.407c-0.399,0.119-0.799,0.236-1.196,0.358c-1.612,0.495-3.215,1.015-4.807,1.559 c-0.417,0.143-0.83,0.292-1.247,0.436c-1.525,0.535-3.044,1.088-4.549,1.666c-0.265,0.101-0.529,0.205-0.793,0.307 c-1.483,0.58-2.953,1.187-4.416,1.807c-0.425,0.182-0.852,0.36-1.275,0.545c-1.507,0.656-2.999,1.333-4.481,2.032 c-0.163,0.078-0.332,0.147-0.495,0.225c-0.211,0.099-0.414,0.213-0.624,0.313c-1.727,0.832-3.44,1.688-5.134,2.579 c-0.27,0.143-0.537,0.29-0.807,0.433c-1.773,0.945-3.53,1.916-5.264,2.925c-0.13,0.076-0.258,0.155-0.388,0.23 c-1.837,1.075-3.654,2.181-5.444,3.326c-0.012,0.006-0.023,0.014-0.034,0.022c-1.815,1.162-3.603,2.361-5.37,3.592 c-0.07,0.048-0.141,0.092-0.209,0.14c-0.039,0.028-0.079,0.057-0.119,0.087c-1.201,0.841-2.391,1.697-3.568,2.569 c-0.316,0.234-0.628,0.475-0.945,0.712c-0.808,0.608-1.609,1.223-2.406,1.843c-0.247,0.192-0.5,0.377-0.745,0.571 c-0.199,0.157-0.389,0.321-0.588,0.479c-1.078,0.863-2.152,1.736-3.209,2.624c-0.206,0.172-0.408,0.346-0.613,0.52 c-1.055,0.897-2.098,1.809-3.131,2.731c-0.279,0.25-0.557,0.501-0.835,0.752c-2.386,2.163-4.709,4.392-6.965,6.69 c-0.048,0.05-0.099,0.098-0.149,0.147c-0.088,0.092-0.175,0.185-0.264,0.276c-0.735,0.754-1.463,1.516-2.183,2.284 c-0.147,0.157-0.293,0.315-0.441,0.472c-0.725,0.777-1.44,1.562-2.147,2.354c-0.135,0.15-0.27,0.301-0.405,0.451 c-0.725,0.816-1.44,1.638-2.149,2.468c-0.107,0.127-0.219,0.254-0.326,0.382c-0.746,0.881-1.485,1.772-2.214,2.669 c-0.062,0.076-0.124,0.152-0.188,0.228c-4.729,5.845-9.061,12.023-12.958,18.491c-0.079,0.132-0.163,0.261-0.242,0.393 c-0.043,0.074-0.088,0.15-0.132,0.225c-0.597,1.001-1.184,2.008-1.761,3.024c-0.095,0.169-0.191,0.341-0.285,0.512 c-0.521,0.925-1.033,1.853-1.536,2.788c-0.121,0.227-0.24,0.453-0.362,0.681c-0.47,0.884-0.934,1.773-1.387,2.669 c-0.135,0.264-0.267,0.527-0.4,0.793c-0.434,0.867-0.861,1.739-1.282,2.614c-0.135,0.284-0.272,0.568-0.406,0.853 c-0.41,0.867-0.808,1.739-1.202,2.614c-0.132,0.292-0.264,0.583-0.394,0.875c-0.391,0.884-0.774,1.775-1.151,2.667 c-0.118,0.282-0.239,0.565-0.357,0.847c-0.383,0.926-0.757,1.857-1.125,2.791c-0.099,0.253-0.203,0.504-0.299,0.757 c-0.397,1.022-0.782,2.05-1.157,3.081c-0.061,0.164-0.123,0.327-0.182,0.492c-1.314,3.641-2.501,7.34-3.558,11.095 c-0.064,0.228-0.124,0.459-0.188,0.689c-0.275,0.996-0.545,1.994-0.801,2.996c-0.098,0.379-0.188,0.76-0.282,1.139 c-0.213,0.861-0.424,1.722-0.624,2.59c-0.102,0.445-0.199,0.892-0.296,1.339c-0.178,0.805-0.354,1.609-0.521,2.419 c-0.099,0.487-0.195,0.977-0.292,1.466c-0.152,0.774-0.299,1.548-0.441,2.326c-0.093,0.515-0.183,1.032-0.272,1.548 c-0.13,0.757-0.254,1.516-0.372,2.278c-0.084,0.532-0.163,1.067-0.242,1.601c-0.109,0.751-0.214,1.505-0.312,2.259 c-0.073,0.545-0.144,1.089-0.211,1.635c-0.092,0.756-0.174,1.514-0.256,2.271c-0.059,0.545-0.118,1.089-0.171,1.635 c-0.074,0.771-0.141,1.547-0.205,2.323c-0.043,0.537-0.092,1.072-0.13,1.61c-0.057,0.807-0.106,1.615-0.152,2.425 c-0.031,0.509-0.064,1.016-0.09,1.525c-0.043,0.897-0.071,1.795-0.101,2.695c-0.012,0.425-0.033,0.85-0.043,1.275 c-0.028,1.328-0.047,2.659-0.047,3.995c0,19.034,3.291,37.309,9.318,54.303c2.861,8.065,6.327,15.846,10.367,23.273 c1.15,2.113,2.349,4.197,3.589,6.253c3.573,5.928,7.509,11.613,11.785,17.02c29.86,37.775,76.072,62.061,127.851,62.061V449.94 v-67.936H349.091z"/></symbol><symbol id="pencil" viewBox="0 0 504.48 504.48"><title>pencil</title><path style="fill:#2394BC;" d="M492.534,145.772L172.337,461.636c0,0-163.84,48.837-171.323,41.354s37.415-175.261,37.415-175.261 L358.626,11.864c15.36-15.754,40.172-15.754,55.532,0l78.375,78.769C507.894,105.599,507.894,130.412,492.534,145.772z"/><path style="fill:#44A4C6;" d="M66.392,367.113L418.097,15.409l-3.938-3.938c-15.36-15.36-40.172-15.36-55.532,0.394L38.823,328.123 c0,0-0.788,3.151-2.363,8.665L66.392,367.113L66.392,367.113z"/><path style="fill:#1F85A9;" d="M501.592,132.775c5.514-14.178,2.757-31.114-8.665-42.535l-7.877-7.877L133.346,434.067l30.72,30.326 c4.332-1.182,7.089-1.969,8.271-2.363C172.337,462.03,501.592,132.775,501.592,132.775z"/><path style="fill:#FFCABA;" d="M0.62,501.809l2.363,2.363c18.511,2.757,160.689-39.385,169.354-42.142l0.394-0.394 c0,0-9.058-42.535-16.935-50.018c-7.877-7.877-42.142-9.058-50.018-16.542c-7.877-7.877-8.665-42.142-16.935-50.018 c-7.877-7.877-48.049-16.148-50.018-16.542C38.823,328.123-2.531,482.116,0.62,501.809L0.62,501.809z"/><path style="fill:#FFDCD2;" d="M0.226,499.839c2.757-4.726,16.542-29.145,88.222-154.781c-7.877-7.877-48.049-16.148-50.018-16.542 C38.823,328.123-0.168,473.846,0.226,499.839z"/><path style="fill:#E5B5A7;" d="M0.226,500.233v1.182l2.363,2.363c18.511,2.757,160.689-39.385,169.354-42.142l0.394-0.394 c0,0-8.665-42.142-16.542-50.018C25.432,486.055,3.771,498.264,0.226,500.233z"/><path style="fill:#2394BC;" d="M27.402,473.058c-5.12-5.12-13.391-9.058-21.662-9.846c-4.332,22.055-7.089,38.203-4.726,40.566 c1.969,1.969,16.935-0.394,36.628-4.726C37.642,489.206,33.309,478.966,27.402,473.058z"/></symbol><symbol id="save" viewBox="0 0 480 480"><title>save</title><path d="m408 8h-400v464h464v-400zm0 0" fill="#5a6470"/><path d="m72 248h336v224h-336zm0 0" fill="#cfdfe8"/><path d="m72 8h336v128h-336zm0 0" fill="#cfdfe8"/><path d="m312 40h48v64h-48zm0 0" fill="#5a6470"/><path d="m72 248h336v32h-336zm0 0" fill="#9fbecc"/><g fill="#fff"><path d="m32 32h16v16h-16zm0 0"/><path d="m32 432h16v16h-16zm0 0"/><path d="m432 432h16v16h-16zm0 0"/></g><path d="m112 416h-16v32h32v-16h-16zm0 0" fill="#5a6470"/><path d="m368 416v16h-16v16h32v-32zm0 0" fill="#5a6470"/><path d="m413.664062 2.351562c-.738281-.738281-1.617187-1.324218-2.585937-1.726562-.972656-.414062-2.019531-.625-3.078125-.625h-400c-4.417969 0-8 3.582031-8 8v464c0 4.417969 3.582031 8 8 8h464c4.417969 0 8-3.582031 8-8v-400c0-2.121094-.84375-4.15625-2.34375-5.65625zm-333.664062 13.648438h320v112h-320zm320 448h-320v-176h320zm0-192h-320v-16h320zm64 192h-48v-216c0-4.417969-3.582031-8-8-8h-336c-4.417969 0-8 3.582031-8 8v216h-48v-448h48v120c0 4.417969 3.582031 8 8 8h336c4.417969 0 8-3.582031 8-8v-108.6875l48 48zm0 0"/><path d="m360 32h-48c-4.417969 0-8 3.582031-8 8v64c0 4.417969 3.582031 8 8 8h48c4.417969 0 8-3.582031 8-8v-64c0-4.417969-3.582031-8-8-8zm-8 64h-32v-48h32zm0 0"/><path d="m32 32h16v16h-16zm0 0"/><path d="m32 432h16v16h-16zm0 0"/><path d="m432 432h16v16h-16zm0 0"/><path d="m128 448v-16h-16v-16h-16v32zm0 0"/><path d="m384 448v-32h-16v16h-16v16zm0 0"/></symbol></svg>